<?plantuml 1.2026.2beta1?><svg xmlns="http://www.w3.org/2000/svg" xmlns:xlink="http://www.w3.org/1999/xlink" contentStyleType="text/css" data-diagram-type="CLASS" height="913px" preserveAspectRatio="none" style="width:918px;height:913px;background:#FFFFFF;" version="1.1" viewBox="0 0 918 913" width="918px" zoomAndPan="magnify"><defs/><g><!--class Users--><g class="entity" data-qualified-name="Users" data-source-line="13" id="ent0002"><rect fill="#F1F1F1" height="107.4844" style="stroke:#181818;stroke-width:0.5;" width="155.0352" x="21.73" y="7"/><text fill="#000000" font-family="sans-serif" font-size="14" lengthAdjust="spacing" textLength="89.5371" x="54.479" y="24.9951">AspNetUsers</text><line style="stroke:#181818;stroke-width:0.5;" x1="22.73" x2="175.7652" y1="33.2969" y2="33.2969"/><g data-visibility-modifier="IE_MANDATORY"><ellipse cx="32.73" cy="46.9453" fill="#000000" rx="3" ry="3" style="stroke:#000000;stroke-width:1;"/></g><text fill="#000000" font-family="sans-serif" font-size="14" lengthAdjust="spacing" textLength="96.3594" x="41.73" y="50.292">Id : uuid &#171;PK&#187;</text><line style="stroke:#181818;stroke-width:1;" x1="22.73" x2="175.7652" y1="57.5938" y2="57.5938"/><text fill="#000000" font-family="sans-serif" font-size="14" lengthAdjust="spacing" textLength="114.707" x="27.73" y="74.5889">UserName : text</text><text fill="#000000" font-family="sans-serif" font-size="14" lengthAdjust="spacing" textLength="80.3359" x="27.73" y="90.8857">Email : text</text><text fill="#000000" font-family="sans-serif" font-size="14" lengthAdjust="spacing" textLength="143.0352" x="27.73" y="107.1826">PasswordHash : text</text></g><!--class Roles--><g class="entity" data-qualified-name="Roles" data-source-line="21" id="ent0003"><rect fill="#F1F1F1" height="74.8906" style="stroke:#181818;stroke-width:0.5;" width="129.8584" x="236.32" y="23.3"/><text fill="#000000" font-family="sans-serif" font-size="14" lengthAdjust="spacing" textLength="38.0898" x="282.2043" y="41.2951">Roles</text><line style="stroke:#181818;stroke-width:0.5;" x1="237.32" x2="365.1784" y1="49.5969" y2="49.5969"/><g data-visibility-modifier="IE_MANDATORY"><ellipse cx="247.32" cy="63.2453" fill="#000000" rx="3" ry="3" style="stroke:#000000;stroke-width:1;"/></g><text fill="#000000" font-family="sans-serif" font-size="14" lengthAdjust="spacing" textLength="103.8584" x="256.32" y="66.592">Id : serial &#171;PK&#187;</text><line style="stroke:#181818;stroke-width:1;" x1="237.32" x2="365.1784" y1="73.8937" y2="73.8937"/><text fill="#000000" font-family="sans-serif" font-size="14" lengthAdjust="spacing" textLength="82.7969" x="242.32" y="90.8889">Name : text</text></g><!--class Groups--><g class="entity" data-qualified-name="Groups" data-source-line="27" id="ent0004"><rect fill="#F1F1F1" height="107.4844" style="stroke:#181818;stroke-width:0.5;" width="191.9902" x="251.25" y="182.63"/><text fill="#000000" font-family="sans-serif" font-size="14" lengthAdjust="spacing" textLength="50.2236" x="322.1333" y="200.6251">Groups</text><line style="stroke:#181818;stroke-width:0.5;" x1="252.25" x2="442.2402" y1="208.9269" y2="208.9269"/><g data-visibility-modifier="IE_MANDATORY"><ellipse cx="262.25" cy="222.5753" fill="#000000" rx="3" ry="3" style="stroke:#000000;stroke-width:1;"/></g><text fill="#000000" font-family="sans-serif" font-size="14" lengthAdjust="spacing" textLength="103.8584" x="271.25" y="225.922">Id : serial &#171;PK&#187;</text><line style="stroke:#181818;stroke-width:1;" x1="252.25" x2="442.2402" y1="233.2238" y2="233.2238"/><g data-visibility-modifier="IE_MANDATORY"><ellipse cx="262.25" cy="246.8722" fill="#000000" rx="3" ry="3" style="stroke:#000000;stroke-width:1;"/></g><text fill="#000000" font-family="sans-serif" font-size="14" lengthAdjust="spacing" textLength="141.6816" x="271.25" y="250.2189">OwnerId : uuid &#171;FK&#187;</text><text fill="#000000" font-family="sans-serif" font-size="14" lengthAdjust="spacing" textLength="82.7969" x="271.25" y="266.5157">Name : text</text><text fill="#000000" font-family="sans-serif" font-size="14" lengthAdjust="spacing" textLength="165.9902" x="271.25" y="282.8126">CreatedDate : datetime</text></g><!--class GrpMem--><g class="entity" data-qualified-name="GrpMem" data-source-line="35" id="ent0005"><rect fill="#F1F1F1" height="123.7813" style="stroke:#181818;stroke-width:0.5;" width="184.498" x="7" y="174.48"/><text fill="#000000" font-family="sans-serif" font-size="14" lengthAdjust="spacing" textLength="107.8096" x="45.3442" y="192.4751">GroupMembers</text><line style="stroke:#181818;stroke-width:0.5;" x1="8" x2="190.498" y1="200.7769" y2="200.7769"/><g data-visibility-modifier="IE_MANDATORY"><ellipse cx="18" cy="214.4253" fill="#000000" rx="3" ry="3" style="stroke:#000000;stroke-width:1;"/></g><text fill="#000000" font-family="sans-serif" font-size="14" lengthAdjust="spacing" textLength="158.498" x="27" y="217.772">GroupId : integer &#171;FK&#187;</text><g data-visibility-modifier="IE_MANDATORY"><ellipse cx="18" cy="230.7222" fill="#000000" rx="3" ry="3" style="stroke:#000000;stroke-width:1;"/></g><text fill="#000000" font-family="sans-serif" font-size="14" lengthAdjust="spacing" textLength="127.8799" x="27" y="234.0689">UserId : uuid &#171;FK&#187;</text><g data-visibility-modifier="IE_MANDATORY"><ellipse cx="18" cy="247.0191" fill="#000000" rx="3" ry="3" style="stroke:#000000;stroke-width:1;"/></g><text fill="#000000" font-family="sans-serif" font-size="14" lengthAdjust="spacing" textLength="146.3643" x="27" y="250.3657">RoleId : integer &#171;FK&#187;</text><line style="stroke:#181818;stroke-width:1;" x1="8" x2="190.498" y1="257.6675" y2="257.6675"/><text fill="#000000" font-family="sans-serif" font-size="14" lengthAdjust="spacing" textLength="153.2344" x="13" y="274.6626">JoinedDate : datetime</text><text fill="#000000" font-family="sans-serif" font-size="14" lengthAdjust="spacing" textLength="113.1416" x="13" y="290.9595">Active : boolean</text></g><!--class Cats--><g class="entity" data-qualified-name="Cats" data-source-line="44" id="ent0006"><rect fill="#F1F1F1" height="107.4844" style="stroke:#181818;stroke-width:0.5;" width="184.498" x="503" y="182.63"/><text fill="#000000" font-family="sans-serif" font-size="14" lengthAdjust="spacing" textLength="75.4619" x="557.5181" y="200.6251">Categories</text><line style="stroke:#181818;stroke-width:0.5;" x1="504" x2="686.498" y1="208.9269" y2="208.9269"/><g data-visibility-modifier="IE_MANDATORY"><ellipse cx="514" cy="222.5753" fill="#000000" rx="3" ry="3" style="stroke:#000000;stroke-width:1;"/></g><text fill="#000000" font-family="sans-serif" font-size="14" lengthAdjust="spacing" textLength="103.8584" x="523" y="225.922">Id : serial &#171;PK&#187;</text><line style="stroke:#181818;stroke-width:1;" x1="504" x2="686.498" y1="233.2238" y2="233.2238"/><g data-visibility-modifier="IE_MANDATORY"><ellipse cx="514" cy="246.8722" fill="#000000" rx="3" ry="3" style="stroke:#000000;stroke-width:1;"/></g><text fill="#000000" font-family="sans-serif" font-size="14" lengthAdjust="spacing" textLength="158.498" x="523" y="250.2189">GroupId : integer &#171;FK&#187;</text><text fill="#000000" font-family="sans-serif" font-size="14" lengthAdjust="spacing" textLength="82.7969" x="523" y="266.5157">Name : text</text><text fill="#000000" font-family="sans-serif" font-size="14" lengthAdjust="spacing" textLength="105.4717" x="523" y="282.8126">ColorHex : text</text></g><!--class Sellers--><g class="entity" data-qualified-name="Sellers" data-source-line="52" id="ent0007"><rect fill="#F1F1F1" height="107.4844" style="stroke:#181818;stroke-width:0.5;" width="184.498" x="494" y="358.27"/><text fill="#000000" font-family="sans-serif" font-size="14" lengthAdjust="spacing" textLength="46.9424" x="562.7778" y="376.2651">Sellers</text><line style="stroke:#181818;stroke-width:0.5;" x1="495" x2="677.498" y1="384.5669" y2="384.5669"/><g data-visibility-modifier="IE_MANDATORY"><ellipse cx="505" cy="398.2153" fill="#000000" rx="3" ry="3" style="stroke:#000000;stroke-width:1;"/></g><text fill="#000000" font-family="sans-serif" font-size="14" lengthAdjust="spacing" textLength="103.8584" x="514" y="401.562">Id : serial &#171;PK&#187;</text><line style="stroke:#181818;stroke-width:1;" x1="495" x2="677.498" y1="408.8638" y2="408.8638"/><g data-visibility-modifier="IE_MANDATORY"><ellipse cx="505" cy="422.5122" fill="#000000" rx="3" ry="3" style="stroke:#000000;stroke-width:1;"/></g><text fill="#000000" font-family="sans-serif" font-size="14" lengthAdjust="spacing" textLength="158.498" x="514" y="425.8589">GroupId : integer &#171;FK&#187;</text><text fill="#000000" font-family="sans-serif" font-size="14" lengthAdjust="spacing" textLength="82.7969" x="514" y="442.1557">Name : text</text><text fill="#000000" font-family="sans-serif" font-size="14" lengthAdjust="spacing" textLength="121.2285" x="514" y="458.4526">Description : text</text></g><!--class ProdData--><g class="entity" data-qualified-name="ProdData" data-source-line="60" id="ent0008"><rect fill="#F1F1F1" height="107.4844" style="stroke:#181818;stroke-width:0.5;" width="184.498" x="438" y="570.49"/><text fill="#000000" font-family="sans-serif" font-size="14" lengthAdjust="spacing" textLength="87.1377" x="486.6802" y="588.4851">ProductData</text><line style="stroke:#181818;stroke-width:0.5;" x1="439" x2="621.498" y1="596.7869" y2="596.7869"/><g data-visibility-modifier="IE_MANDATORY"><ellipse cx="449" cy="610.4353" fill="#000000" rx="3" ry="3" style="stroke:#000000;stroke-width:1;"/></g><text fill="#000000" font-family="sans-serif" font-size="14" lengthAdjust="spacing" textLength="103.8584" x="458" y="613.782">Id : serial &#171;PK&#187;</text><line style="stroke:#181818;stroke-width:1;" x1="439" x2="621.498" y1="621.0838" y2="621.0838"/><g data-visibility-modifier="IE_MANDATORY"><ellipse cx="449" cy="634.7322" fill="#000000" rx="3" ry="3" style="stroke:#000000;stroke-width:1;"/></g><text fill="#000000" font-family="sans-serif" font-size="14" lengthAdjust="spacing" textLength="158.498" x="458" y="638.0789">GroupId : integer &#171;FK&#187;</text><text fill="#000000" font-family="sans-serif" font-size="14" lengthAdjust="spacing" textLength="82.7969" x="458" y="654.3757">Name : text</text><text fill="#000000" font-family="sans-serif" font-size="14" lengthAdjust="spacing" textLength="121.2285" x="458" y="670.6726">Description : text</text></g><!--class DataCats--><g class="entity" data-qualified-name="DataCats" data-source-line="68" id="ent0009"><rect fill="#F1F1F1" height="74.8906" style="stroke:#181818;stroke-width:0.5;" width="228.7061" x="682.9" y="586.79"/><text fill="#000000" font-family="sans-serif" font-size="14" lengthAdjust="spacing" textLength="162.5996" x="715.9532" y="604.7851">ProductDataCategories</text><line style="stroke:#181818;stroke-width:0.5;" x1="683.9" x2="910.6061" y1="613.0869" y2="613.0869"/><g data-visibility-modifier="IE_MANDATORY"><ellipse cx="693.9" cy="626.7353" fill="#000000" rx="3" ry="3" style="stroke:#000000;stroke-width:1;"/></g><text fill="#000000" font-family="sans-serif" font-size="14" lengthAdjust="spacing" textLength="202.7061" x="702.9" y="630.082">ProductDataId : integer &#171;FK&#187;</text><g data-visibility-modifier="IE_MANDATORY"><ellipse cx="693.9" cy="643.0322" fill="#000000" rx="3" ry="3" style="stroke:#000000;stroke-width:1;"/></g><text fill="#000000" font-family="sans-serif" font-size="14" lengthAdjust="spacing" textLength="179.5186" x="702.9" y="646.3789">CategoryId : integer &#171;FK&#187;</text><line style="stroke:#181818;stroke-width:0.5;" x1="683.9" x2="910.6061" y1="653.6806" y2="653.6806"/></g><!--class Receipts--><g class="entity" data-qualified-name="Receipts" data-source-line="73" id="ent0010"><rect fill="#F1F1F1" height="196.9688" style="stroke:#181818;stroke-width:0.5;" width="253.1582" x="124.67" y="525.75"/><text fill="#000000" font-family="sans-serif" font-size="14" lengthAdjust="spacing" textLength="60.2109" x="221.1436" y="543.7451">Receipts</text><line style="stroke:#181818;stroke-width:0.5;" x1="125.67" x2="376.8282" y1="552.0469" y2="552.0469"/><g data-visibility-modifier="IE_MANDATORY"><ellipse cx="135.67" cy="565.6953" fill="#000000" rx="3" ry="3" style="stroke:#000000;stroke-width:1;"/></g><text fill="#000000" font-family="sans-serif" font-size="14" lengthAdjust="spacing" textLength="103.8584" x="144.67" y="569.042">Id : serial &#171;PK&#187;</text><line style="stroke:#181818;stroke-width:1;" x1="125.67" x2="376.8282" y1="576.3438" y2="576.3438"/><g data-visibility-modifier="IE_MANDATORY"><ellipse cx="135.67" cy="589.9922" fill="#000000" rx="3" ry="3" style="stroke:#000000;stroke-width:1;"/></g><text fill="#000000" font-family="sans-serif" font-size="14" lengthAdjust="spacing" textLength="158.498" x="144.67" y="593.3389">GroupId : integer &#171;FK&#187;</text><g data-visibility-modifier="IE_MANDATORY"><ellipse cx="135.67" cy="606.2891" fill="#000000" rx="3" ry="3" style="stroke:#000000;stroke-width:1;"/></g><text fill="#000000" font-family="sans-serif" font-size="14" lengthAdjust="spacing" textLength="227.1582" x="144.67" y="609.6357">CreatedByMemberId : uuid &#171;FK&#187;</text><g data-visibility-modifier="IE_MANDATORY"><ellipse cx="135.67" cy="622.5859" fill="#000000" rx="3" ry="3" style="stroke:#000000;stroke-width:1;"/></g><text fill="#000000" font-family="sans-serif" font-size="14" lengthAdjust="spacing" textLength="155.2168" x="144.67" y="625.9326">SellerId : integer &#171;FK&#187;</text><text fill="#000000" font-family="sans-serif" font-size="14" lengthAdjust="spacing" textLength="158.9014" x="144.67" y="642.2295">TotalAmount : decimal</text><text fill="#000000" font-family="sans-serif" font-size="14" lengthAdjust="spacing" textLength="172.1973" x="144.67" y="658.5264">PaymentDate : datetime</text><text fill="#000000" font-family="sans-serif" font-size="14" lengthAdjust="spacing" textLength="165.9902" x="144.67" y="674.8232">CreatedDate : datetime</text><line style="stroke:#181818;stroke-width:1;" x1="125.67" x2="376.8282" y1="682.125" y2="682.125"/><text fill="#000000" font-family="sans-serif" font-size="14" lengthAdjust="spacing" textLength="124.2227" x="130.67" y="699.1201">SourceType : text</text><text fill="#000000" font-family="sans-serif" font-size="14" lengthAdjust="spacing" textLength="162.0254" x="130.67" y="715.417">OriginalFileName : text</text></g><!--class ProdEntries--><g class="entity" data-qualified-name="ProdEntries" data-source-line="87" id="ent0011"><rect fill="#F1F1F1" height="123.7813" style="stroke:#181818;stroke-width:0.5;" width="228.7061" x="136.9" y="782.72"/><text fill="#000000" font-family="sans-serif" font-size="14" lengthAdjust="spacing" textLength="102.4707" x="200.0177" y="800.7151">ProductEntries</text><line style="stroke:#181818;stroke-width:0.5;" x1="137.9" x2="364.6061" y1="809.0169" y2="809.0169"/><g data-visibility-modifier="IE_MANDATORY"><ellipse cx="147.9" cy="822.6653" fill="#000000" rx="3" ry="3" style="stroke:#000000;stroke-width:1;"/></g><text fill="#000000" font-family="sans-serif" font-size="14" lengthAdjust="spacing" textLength="103.8584" x="156.9" y="826.012">Id : serial &#171;PK&#187;</text><line style="stroke:#181818;stroke-width:1;" x1="137.9" x2="364.6061" y1="833.3138" y2="833.3138"/><g data-visibility-modifier="IE_MANDATORY"><ellipse cx="147.9" cy="846.9622" fill="#000000" rx="3" ry="3" style="stroke:#000000;stroke-width:1;"/></g><text fill="#000000" font-family="sans-serif" font-size="14" lengthAdjust="spacing" textLength="168.4854" x="156.9" y="850.3089">ReceiptId : integer &#171;FK&#187;</text><g data-visibility-modifier="IE_MANDATORY"><ellipse cx="147.9" cy="863.2591" fill="#000000" rx="3" ry="3" style="stroke:#000000;stroke-width:1;"/></g><text fill="#000000" font-family="sans-serif" font-size="14" lengthAdjust="spacing" textLength="202.7061" x="156.9" y="866.6057">ProductDataId : integer &#171;FK&#187;</text><text fill="#000000" font-family="sans-serif" font-size="14" lengthAdjust="spacing" textLength="103.209" x="156.9" y="882.9026">Price : decimal</text><text fill="#000000" font-family="sans-serif" font-size="14" lengthAdjust="spacing" textLength="129.3086" x="156.9" y="899.1995">Quantity : decimal</text></g><!--link Users to Roles--><!--link GrpMem to Groups--><!--link Groups to GrpMem--><g class="link" data-entity-1="ent0004" data-entity-2="ent0005" data-link-type="crowfoot" data-source-line="132" id="lnk25"><path codeLine="132" d="M243.01,254.5 C223.54,254.5 219.11,254.5 199.77,254.5" fill="none" id="Groups-GrpMem" style="stroke:#181818;stroke-width:1;stroke-dasharray:7,7;"/><line style="stroke:#181818;stroke-width:1;" x1="247.01" x2="247.01" y1="250.5" y2="258.5"/><line style="stroke:#181818;stroke-width:1;" x1="244.01" x2="244.01" y1="250.5" y2="258.5"/><line style="stroke:#181818;stroke-width:1;" x1="243.01" x2="251.01" y1="254.5" y2="254.5"/><line style="stroke:#181818;stroke-width:1;" x1="199.77" x2="191.77" y1="254.5" y2="260.5"/><line style="stroke:#181818;stroke-width:1;" x1="199.77" x2="191.77" y1="254.5" y2="248.5"/><line style="stroke:#181818;stroke-width:1;" x1="199.77" x2="191.77" y1="254.5" y2="254.5"/><line style="stroke:#181818;stroke-width:1;" x1="201.77" x2="201.77" y1="258.5" y2="250.5"/></g><!--link Groups to Cats--><!--link Groups to Cats--><g class="link" data-entity-1="ent0004" data-entity-2="ent0006" data-link-type="crowfoot" data-source-line="135" id="lnk26"><path codeLine="135" d="M451.49,247.5 C470.96,247.5 465.39,247.5 484.73,247.5" fill="none" id="Groups-Cats-1" style="stroke:#181818;stroke-width:1;stroke-dasharray:7,7;"/><line style="stroke:#181818;stroke-width:1;" x1="447.49" x2="447.49" y1="251.5" y2="243.5"/><line style="stroke:#181818;stroke-width:1;" x1="450.49" x2="450.49" y1="251.5" y2="243.5"/><line style="stroke:#181818;stroke-width:1;" x1="451.49" x2="443.49" y1="247.5" y2="247.5"/><line style="stroke:#181818;stroke-width:1;" x1="494.73" x2="502.73" y1="247.5" y2="241.5"/><line style="stroke:#181818;stroke-width:1;" x1="494.73" x2="502.73" y1="247.5" y2="253.5"/><line style="stroke:#181818;stroke-width:1;" x1="494.73" x2="502.73" y1="247.5" y2="247.5"/><ellipse cx="488.73" cy="247.5" fill="none" rx="4" ry="4" style="stroke:#181818;stroke-width:1;"/></g><!--link Cats to Sellers--><!--link Sellers to ProdData--><!--link ProdData to DataCats--><!--link ProdData to DataCats--><g class="link" data-entity-1="ent0008" data-entity-2="ent0009" data-link-type="crowfoot" data-source-line="141" id="lnk30"><path codeLine="141" d="M630.88,637.5 C650.16,637.5 644.7,637.5 664.66,637.5" fill="none" id="ProdData-DataCats-1" style="stroke:#181818;stroke-width:1;stroke-dasharray:7,7;"/><line style="stroke:#181818;stroke-width:1;" x1="626.88" x2="626.88" y1="641.5" y2="633.5"/><line style="stroke:#181818;stroke-width:1;" x1="629.88" x2="629.88" y1="641.5" y2="633.5"/><line style="stroke:#181818;stroke-width:1;" x1="630.88" x2="622.88" y1="637.5" y2="637.5"/><line style="stroke:#181818;stroke-width:1;" x1="674.66" x2="682.66" y1="637.5" y2="631.5"/><line style="stroke:#181818;stroke-width:1;" x1="674.66" x2="682.66" y1="637.5" y2="643.5"/><line style="stroke:#181818;stroke-width:1;" x1="674.66" x2="682.66" y1="637.5" y2="637.5"/><ellipse cx="668.66" cy="637.5" fill="none" rx="4" ry="4" style="stroke:#181818;stroke-width:1;"/></g><!--link Groups to Receipts--><!--link Groups to Receipts--><g class="link" data-entity-1="ent0004" data-entity-2="ent0010" data-link-type="crowfoot" data-source-line="144" id="lnk31"><path codeLine="144" d="M335.64,298.31 C335.64,358.98 335.64,432.81 335.64,507.54" fill="none" id="Groups-Receipts-1" style="stroke:#181818;stroke-width:1;stroke-dasharray:7,7;"/><line style="stroke:#181818;stroke-width:1;" x1="331.64" x2="339.64" y1="294.31" y2="294.31"/><line style="stroke:#181818;stroke-width:1;" x1="331.64" x2="339.64" y1="297.31" y2="297.31"/><line style="stroke:#181818;stroke-width:1;" x1="335.64" x2="335.64" y1="298.31" y2="290.31"/><line style="stroke:#181818;stroke-width:1;" x1="335.64" x2="341.64" y1="517.54" y2="525.54"/><line style="stroke:#181818;stroke-width:1;" x1="335.64" x2="329.64" y1="517.54" y2="525.54"/><line style="stroke:#181818;stroke-width:1;" x1="335.64" x2="335.64" y1="517.54" y2="525.54"/><ellipse cx="335.64" cy="511.54" fill="none" rx="4" ry="4" style="stroke:#181818;stroke-width:1;"/></g><!--link Receipts to ProdEntries--><!--link Receipts to ProdEntries--><g class="link" data-entity-1="ent0010" data-entity-2="ent0011" data-link-type="crowfoot" data-source-line="147" id="lnk34"><path codeLine="147" d="M289.37,731.14 C289.37,751.28 289.37,755.93 289.37,774.35" fill="none" id="Receipts-ProdEntries-1" style="stroke:#181818;stroke-width:1;stroke-dasharray:7,7;"/><line style="stroke:#181818;stroke-width:1;" x1="285.37" x2="293.37" y1="727.14" y2="727.14"/><line style="stroke:#181818;stroke-width:1;" x1="285.37" x2="293.37" y1="730.14" y2="730.14"/><line style="stroke:#181818;stroke-width:1;" x1="289.37" x2="289.37" y1="731.14" y2="723.14"/><line style="stroke:#181818;stroke-width:1;" x1="289.37" x2="295.37" y1="774.35" y2="782.35"/><line style="stroke:#181818;stroke-width:1;" x1="289.37" x2="283.37" y1="774.35" y2="782.35"/><line style="stroke:#181818;stroke-width:1;" x1="289.37" x2="289.37" y1="774.35" y2="782.35"/><line style="stroke:#181818;stroke-width:1;" x1="293.37" x2="285.37" y1="772.35" y2="772.35"/></g><!--link Users to Groups--><!--link Users to Groups--><g class="link" data-entity-1="ent0002" data-entity-2="ent0004" data-link-type="crowfoot" data-source-line="127" id="lnk22"><path codeLine="127" d="M185.21,109.5 C237.76,109.5 289.56,109.5 289.56,109.5 C289.56,109.5 289.56,139.72 289.56,174.2" fill="none" id="Users-Groups-1" style="stroke:#181818;stroke-width:1;stroke-dasharray:7,7;"/><line style="stroke:#181818;stroke-width:1;" x1="181.21" x2="181.21" y1="113.5" y2="105.5"/><line style="stroke:#181818;stroke-width:1;" x1="184.21" x2="184.21" y1="113.5" y2="105.5"/><line style="stroke:#181818;stroke-width:1;" x1="185.21" x2="177.21" y1="109.5" y2="109.5"/><line style="stroke:#181818;stroke-width:1;" x1="289.56" x2="295.56" y1="174.2" y2="182.2"/><line style="stroke:#181818;stroke-width:1;" x1="289.56" x2="283.56" y1="174.2" y2="182.2"/><line style="stroke:#181818;stroke-width:1;" x1="289.56" x2="289.56" y1="174.2" y2="182.2"/><line style="stroke:#181818;stroke-width:1;" x1="293.56" x2="285.56" y1="172.2" y2="172.2"/></g><!--link Roles to GrpMem--><!--link Roles to GrpMem--><g class="link" data-entity-1="ent0003" data-entity-2="ent0005" data-link-type="crowfoot" data-source-line="129" id="lnk24"><path codeLine="129" d="M246.28,106.63 C246.28,141.72 246.28,180.5 246.28,180.5 C246.28,180.5 239.31,180.5 209.95,180.5" fill="none" id="Roles-GrpMem-1" style="stroke:#181818;stroke-width:1;stroke-dasharray:7,7;"/><line style="stroke:#181818;stroke-width:1;" x1="242.28" x2="250.28" y1="102.63" y2="102.63"/><line style="stroke:#181818;stroke-width:1;" x1="242.28" x2="250.28" y1="105.63" y2="105.63"/><line style="stroke:#181818;stroke-width:1;" x1="246.28" x2="246.28" y1="106.63" y2="98.63"/><line style="stroke:#181818;stroke-width:1;" x1="199.95" x2="191.95" y1="180.5" y2="186.5"/><line style="stroke:#181818;stroke-width:1;" x1="199.95" x2="191.95" y1="180.5" y2="174.5"/><line style="stroke:#181818;stroke-width:1;" x1="199.95" x2="191.95" y1="180.5" y2="180.5"/><ellipse cx="205.95" cy="180.5" fill="none" rx="4" ry="4" style="stroke:#181818;stroke-width:1;"/></g><!--link Users to GrpMem--><g class="link" data-entity-1="ent0002" data-entity-2="ent0005" data-link-type="crowfoot" data-source-line="128" id="lnk23"><path codeLine="128" d="M99.25,122.87 C99.25,141.62 99.25,146.78 99.25,166.13" fill="none" id="Users-GrpMem" style="stroke:#181818;stroke-width:1;stroke-dasharray:7,7;"/><line style="stroke:#181818;stroke-width:1;" x1="95.25" x2="103.25" y1="118.87" y2="118.87"/><line style="stroke:#181818;stroke-width:1;" x1="95.25" x2="103.25" y1="121.87" y2="121.87"/><line style="stroke:#181818;stroke-width:1;" x1="99.25" x2="99.25" y1="122.87" y2="114.87"/><line style="stroke:#181818;stroke-width:1;" x1="99.25" x2="105.25" y1="166.13" y2="174.13"/><line style="stroke:#181818;stroke-width:1;" x1="99.25" x2="93.25" y1="166.13" y2="174.13"/><line style="stroke:#181818;stroke-width:1;" x1="99.25" x2="99.25" y1="166.13" y2="174.13"/><line style="stroke:#181818;stroke-width:1;" x1="103.25" x2="95.25" y1="164.13" y2="164.13"/></g><!--link Groups to Sellers--><g class="link" data-entity-1="ent0004" data-entity-2="ent0007" data-link-type="crowfoot" data-source-line="136" id="lnk27"><path codeLine="136" d="M451.47,269.5 C481.3,269.5 498.5,269.5 498.5,269.5 C498.5,269.5 498.5,299.78 498.5,340.13" fill="none" id="Groups-Sellers" style="stroke:#181818;stroke-width:1;stroke-dasharray:7,7;"/><line style="stroke:#181818;stroke-width:1;" x1="447.47" x2="447.47" y1="273.5" y2="265.5"/><line style="stroke:#181818;stroke-width:1;" x1="450.47" x2="450.47" y1="273.5" y2="265.5"/><line style="stroke:#181818;stroke-width:1;" x1="451.47" x2="443.47" y1="269.5" y2="269.5"/><line style="stroke:#181818;stroke-width:1;" x1="498.5" x2="504.5" y1="350.13" y2="358.13"/><line style="stroke:#181818;stroke-width:1;" x1="498.5" x2="492.5" y1="350.13" y2="358.13"/><line style="stroke:#181818;stroke-width:1;" x1="498.5" x2="498.5" y1="350.13" y2="358.13"/><ellipse cx="498.5" cy="344.13" fill="none" rx="4" ry="4" style="stroke:#181818;stroke-width:1;"/></g><!--link Groups to ProdData--><g class="link" data-entity-1="ent0004" data-entity-2="ent0008" data-link-type="crowfoot" data-source-line="137" id="lnk28"><path codeLine="137" d="M451.47,204.5 C466.2,204.5 468.62,204.5 468.62,204.5 C468.62,204.5 468.62,438.86 468.62,552.22" fill="none" id="Groups-ProdData" style="stroke:#181818;stroke-width:1;stroke-dasharray:7,7;"/><line style="stroke:#181818;stroke-width:1;" x1="447.47" x2="447.47" y1="208.5" y2="200.5"/><line style="stroke:#181818;stroke-width:1;" x1="450.47" x2="450.47" y1="208.5" y2="200.5"/><line style="stroke:#181818;stroke-width:1;" x1="451.47" x2="443.47" y1="204.5" y2="204.5"/><line style="stroke:#181818;stroke-width:1;" x1="468.62" x2="474.62" y1="562.22" y2="570.22"/><line style="stroke:#181818;stroke-width:1;" x1="468.62" x2="462.62" y1="562.22" y2="570.22"/><line style="stroke:#181818;stroke-width:1;" x1="468.62" x2="468.62" y1="562.22" y2="570.22"/><ellipse cx="468.62" cy="556.22" fill="none" rx="4" ry="4" style="stroke:#181818;stroke-width:1;"/></g><!--link Cats to DataCats--><g class="link" data-entity-1="ent0006" data-entity-2="ent0009" data-link-type="crowfoot" data-source-line="140" id="lnk29"><path codeLine="140" d="M695.84,236.5 C749.89,236.5 799.55,236.5 799.55,236.5 C799.55,236.5 799.55,470.79 799.55,568.35" fill="none" id="Cats-DataCats" style="stroke:#181818;stroke-width:1;stroke-dasharray:7,7;"/><line style="stroke:#181818;stroke-width:1;" x1="691.84" x2="691.84" y1="240.5" y2="232.5"/><line style="stroke:#181818;stroke-width:1;" x1="694.84" x2="694.84" y1="240.5" y2="232.5"/><line style="stroke:#181818;stroke-width:1;" x1="695.84" x2="687.84" y1="236.5" y2="236.5"/><line style="stroke:#181818;stroke-width:1;" x1="799.55" x2="805.55" y1="578.35" y2="586.35"/><line style="stroke:#181818;stroke-width:1;" x1="799.55" x2="793.55" y1="578.35" y2="586.35"/><line style="stroke:#181818;stroke-width:1;" x1="799.55" x2="799.55" y1="578.35" y2="586.35"/><ellipse cx="799.55" cy="572.35" fill="none" rx="4" ry="4" style="stroke:#181818;stroke-width:1;"/></g><!--link GrpMem to Receipts--><g class="link" data-entity-1="ent0005" data-entity-2="ent0010" data-link-type="crowfoot" data-source-line="145" id="lnk32"><path codeLine="145" d="M158.08,306.69 C158.08,367.83 158.08,436.01 158.08,507.37" fill="none" id="GrpMem-Receipts" style="stroke:#181818;stroke-width:1;stroke-dasharray:7,7;"/><line style="stroke:#181818;stroke-width:1;" x1="154.08" x2="162.08" y1="302.69" y2="302.69"/><line style="stroke:#181818;stroke-width:1;" x1="154.08" x2="162.08" y1="305.69" y2="305.69"/><line style="stroke:#181818;stroke-width:1;" x1="158.08" x2="158.08" y1="306.69" y2="298.69"/><line style="stroke:#181818;stroke-width:1;" x1="158.08" x2="164.08" y1="517.37" y2="525.37"/><line style="stroke:#181818;stroke-width:1;" x1="158.08" x2="152.08" y1="517.37" y2="525.37"/><line style="stroke:#181818;stroke-width:1;" x1="158.08" x2="158.08" y1="517.37" y2="525.37"/><ellipse cx="158.08" cy="511.37" fill="none" rx="4" ry="4" style="stroke:#181818;stroke-width:1;"/></g><!--link Sellers to Receipts--><g class="link" data-entity-1="ent0007" data-entity-2="ent0010" data-link-type="crowfoot" data-source-line="146" id="lnk33"><path codeLine="146" d="M536.83,473.95 C536.83,512.11 536.83,548.5 536.83,548.5 C536.83,548.5 472.45,548.5 396.17,548.5" fill="none" id="Sellers-Receipts" style="stroke:#181818;stroke-width:1;stroke-dasharray:7,7;"/><line style="stroke:#181818;stroke-width:1;" x1="532.83" x2="540.83" y1="469.95" y2="469.95"/><line style="stroke:#181818;stroke-width:1;" x1="532.83" x2="540.83" y1="472.95" y2="472.95"/><line style="stroke:#181818;stroke-width:1;" x1="536.83" x2="536.83" y1="473.95" y2="465.95"/><line style="stroke:#181818;stroke-width:1;" x1="386.17" x2="378.17" y1="548.5" y2="554.5"/><line style="stroke:#181818;stroke-width:1;" x1="386.17" x2="378.17" y1="548.5" y2="542.5"/><line style="stroke:#181818;stroke-width:1;" x1="386.17" x2="378.17" y1="548.5" y2="548.5"/><ellipse cx="392.17" cy="548.5" fill="none" rx="4" ry="4" style="stroke:#181818;stroke-width:1;"/></g><!--link ProdData to ProdEntries--><g class="link" data-entity-1="ent0008" data-entity-2="ent0011" data-link-type="crowfoot" data-source-line="148" id="lnk35"><path codeLine="148" d="M530.25,686.36 C530.25,751.87 530.25,845.5 530.25,845.5 C530.25,845.5 460.89,845.5 383.94,845.5" fill="none" id="ProdData-ProdEntries" style="stroke:#181818;stroke-width:1;stroke-dasharray:7,7;"/><line style="stroke:#181818;stroke-width:1;" x1="526.25" x2="534.25" y1="682.36" y2="682.36"/><line style="stroke:#181818;stroke-width:1;" x1="526.25" x2="534.25" y1="685.36" y2="685.36"/><line style="stroke:#181818;stroke-width:1;" x1="530.25" x2="530.25" y1="686.36" y2="678.36"/><line style="stroke:#181818;stroke-width:1;" x1="373.94" x2="365.94" y1="845.5" y2="851.5"/><line style="stroke:#181818;stroke-width:1;" x1="373.94" x2="365.94" y1="845.5" y2="839.5"/><line style="stroke:#181818;stroke-width:1;" x1="373.94" x2="365.94" y1="845.5" y2="845.5"/><ellipse cx="379.94" cy="845.5" fill="none" rx="4" ry="4" style="stroke:#181818;stroke-width:1;"/></g><?plantuml-src lLRTZ-9637_FNs7Tom4wLjVF1tGwYMDPbdOB76GhLLKVvX93Hfjaefa9BBgz_xsUhsmsGBKFRNaXiSVsR-oVxMGyHKYuJ7ACr0ClAoPP0JalKHyh125r9beAbR5K77YvWotBLTj4YhfC4o5BbF0-Yjx2S3Y4pMeycIzci9d6CVrlZ91KCTzbciwfYYN6LuPvfM1fOjdG2hQyJA5YEbDmu2IkDUH2L7Iu5R8KAIgiuEVtRHoiVF123sAwYEVnVBg1tbBo7IzP3jTCCrX9ifPxJFiMLeIbvle8RyQgMg2-9vrw0qo1VOAl4T1lC4zX17NDK_ZmOVNhnuzMIjRcpnnSi0BfXCP7RMNJWl6yBLWnfGv2fhTCPK7-xJduMkJemjgd5s79FIVmfu7RGLk-PbIJoZbpZw_pDbWUg8ZjYzw44ztRJIGoZIcbquXJ-jEym1CCls7n9MHp9irhG6BLDXGlDUw84wre0vFGipW69ZcNpFmrVX74f1DeHZDEDDyRwHT1RbZPnZkXWpiXkIy2lRusQ_zubPF4YLp8MtmyKxKDvdb8bd_-Bn1SeqeahpGNfHT36yLAYhHEj6aKYyIyswxvNw1SGD8fZXSrwMcTl4Wfx-9uxa2x3J51GkGxqR_y6tSV-9RvT7HDSPxUhkwNVCH2itnSqC3LXjgOy8BbVhWS2xh2ET9VQDKMy8sePOAn6Vk144OSXkODpx5LkNDicPQwAOuH-VTNvisd-MBcNb7UbUG9TdBokMOEvRFuMrWDDylrP7eDT-C_blSnpDRpwx2XCgu8Qc8vkHMK5mKwGx0NDbUYu08ORJ1okUK9xBcgwLexIPKaUr9M4lTqt9hvfIP50OaKIfcb9_Q4NP1MqXnwH7LbGAt50RuR-PN3Q0VQBH2vz-6V6KzJBF-IPdyElSvRVJy2FsPX6CRz49ux9lA3j-l47Os2HKThsYj4-67KpACUxNh2RPkFhlg0j72j1IZxFM6cQZ-owiOZVJUKm-0X2fuwwZ1cecRUT165fW-eVXmzzsTlGWcNBC-Fm7A-e_4F3gYxNV_abYvei0ykVnf1O6xltjg74_seYNK6k3SoRdv7gNb2X1WR7AOdOPRNs2sai_KbS0l_H6Ug5WN2hgTtutY-N6nkvwlmDNLlwTGmCUNIyPRG6n_lN6NUGOvRtVVVMeQKxdiBI-fkDFxdgMjd3_BfwUhgwMi0rv5PK0wmaOb6Hdwi1MquYI7VByteo4IKMxwh9RFzrLjRwco8Elss2NcrbNuf2WnwAMs8Gzxze51m9tOySJJqnnhsDFpgAiZ-XiPTINEazqbeBOekfeOklgEwua3jhhoXZaz7cp9TE2tTtm00?></g></svg>