<?plantuml 1.2026.2beta3?><svg xmlns="http://www.w3.org/2000/svg" xmlns:xlink="http://www.w3.org/1999/xlink" contentStyleType="text/css" data-diagram-type="CLASS" height="913px" preserveAspectRatio="none" style="width:918px;height:913px;background:#FFFFFF;" version="1.1" viewBox="0 0 918 913" width="918px" zoomAndPan="magnify"><defs/><g><!--class Users--><g class="entity" data-qualified-name="Users" data-source-line="13" id="ent0002"><rect fill="#F1F1F1" height="107.4844" style="stroke:#181818;stroke-width:0.5;" width="155.0352" x="21.73" y="7"/><text fill="#000000" font-family="sans-serif" font-size="14" lengthAdjust="spacing" textLength="89.5371" x="54.479" y="24.9951">AspNetUsers</text><line style="stroke:#181818;stroke-width:0.5;" x1="22.73" x2="175.7652" y1="33.2969" y2="33.2969"/><g data-visibility-modifier="IE_MANDATORY"><ellipse cx="32.73" cy="46.9453" fill="#000000" rx="3" ry="3" style="stroke:#000000;stroke-width:1;"/></g><text fill="#000000" font-family="sans-serif" font-size="14" lengthAdjust="spacing" textLength="96.3594" x="41.73" y="50.292">Id : uuid &#171;PK&#187;</text><line style="stroke:#181818;stroke-width:1;" x1="22.73" x2="175.7652" y1="57.5938" y2="57.5938"/><text fill="#000000" font-family="sans-serif" font-size="14" lengthAdjust="spacing" textLength="114.707" x="27.73" y="74.5889">UserName : text</text><text fill="#000000" font-family="sans-serif" font-size="14" lengthAdjust="spacing" textLength="80.3359" x="27.73" y="90.8857">Email : text</text><text fill="#000000" font-family="sans-serif" font-size="14" lengthAdjust="spacing" textLength="143.0352" x="27.73" y="107.1826">PasswordHash : text</text></g><!--class Roles--><g class="entity" data-qualified-name="Roles" data-source-line="21" id="ent0003"><rect fill="#F1F1F1" height="74.8906" style="stroke:#181818;stroke-width:0.5;" width="129.8584" x="236.32" y="23.3"/><text fill="#000000" font-family="sans-serif" font-size="14" lengthAdjust="spacing" textLength="38.0898" x="282.2043" y="41.2951">Roles</text><line style="stroke:#181818;stroke-width:0.5;" x1="237.32" x2="365.1784" y1="49.5969" y2="49.5969"/><g data-visibility-modifier="IE_MANDATORY"><ellipse cx="247.32" cy="63.2453" fill="#000000" rx="3" ry="3" style="stroke:#000000;stroke-width:1;"/></g><text fill="#000000" font-family="sans-serif" font-size="14" lengthAdjust="spacing" textLength="103.8584" x="256.32" y="66.592">Id : serial &#171;PK&#187;</text><line style="stroke:#181818;stroke-width:1;" x1="237.32" x2="365.1784" y1="73.8937" y2="73.8937"/><text fill="#000000" font-family="sans-serif" font-size="14" lengthAdjust="spacing" textLength="82.7969" x="242.32" y="90.8889">Name : text</text></g><!--class Groups--><g class="entity" data-qualified-name="Groups" data-source-line="27" id="ent0004"><rect fill="#F1F1F1" height="123.7813" style="stroke:#181818;stroke-width:0.5;" width="191.9902" x="251.25" y="174.48"/><text fill="#000000" font-family="sans-serif" font-size="14" lengthAdjust="spacing" textLength="50.2236" x="322.1333" y="192.4751">Groups</text><line style="stroke:#181818;stroke-width:0.5;" x1="252.25" x2="442.2402" y1="200.7769" y2="200.7769"/><g data-visibility-modifier="IE_MANDATORY"><ellipse cx="262.25" cy="214.4253" fill="#000000" rx="3" ry="3" style="stroke:#000000;stroke-width:1;"/></g><text fill="#000000" font-family="sans-serif" font-size="14" lengthAdjust="spacing" textLength="103.8584" x="271.25" y="217.772">Id : serial &#171;PK&#187;</text><line style="stroke:#181818;stroke-width:1;" x1="252.25" x2="442.2402" y1="225.0738" y2="225.0738"/><g data-visibility-modifier="IE_MANDATORY"><ellipse cx="262.25" cy="238.7222" fill="#000000" rx="3" ry="3" style="stroke:#000000;stroke-width:1;"/></g><text fill="#000000" font-family="sans-serif" font-size="14" lengthAdjust="spacing" textLength="141.6816" x="271.25" y="242.0689">OwnerId : uuid &#171;FK&#187;</text><text fill="#000000" font-family="sans-serif" font-size="14" lengthAdjust="spacing" textLength="82.7969" x="271.25" y="258.3657">Name : text</text><text fill="#000000" font-family="sans-serif" font-size="14" lengthAdjust="spacing" textLength="165.9902" x="271.25" y="274.6626">CreatedDate : datetime</text><text fill="#000000" font-family="sans-serif" font-size="14" lengthAdjust="spacing" textLength="136.5752" x="271.25" y="290.9595">IsPersonal: boolean</text></g><!--class GrpMem--><g class="entity" data-qualified-name="GrpMem" data-source-line="36" id="ent0005"><rect fill="#F1F1F1" height="123.7813" style="stroke:#181818;stroke-width:0.5;" width="184.498" x="7" y="174.48"/><text fill="#000000" font-family="sans-serif" font-size="14" lengthAdjust="spacing" textLength="107.8096" x="45.3442" y="192.4751">GroupMembers</text><line style="stroke:#181818;stroke-width:0.5;" x1="8" x2="190.498" y1="200.7769" y2="200.7769"/><g data-visibility-modifier="IE_MANDATORY"><ellipse cx="18" cy="214.4253" fill="#000000" rx="3" ry="3" style="stroke:#000000;stroke-width:1;"/></g><text fill="#000000" font-family="sans-serif" font-size="14" lengthAdjust="spacing" textLength="158.498" x="27" y="217.772">GroupId : integer &#171;FK&#187;</text><g data-visibility-modifier="IE_MANDATORY"><ellipse cx="18" cy="230.7222" fill="#000000" rx="3" ry="3" style="stroke:#000000;stroke-width:1;"/></g><text fill="#000000" font-family="sans-serif" font-size="14" lengthAdjust="spacing" textLength="127.8799" x="27" y="234.0689">UserId : uuid &#171;FK&#187;</text><g data-visibility-modifier="IE_MANDATORY"><ellipse cx="18" cy="247.0191" fill="#000000" rx="3" ry="3" style="stroke:#000000;stroke-width:1;"/></g><text fill="#000000" font-family="sans-serif" font-size="14" lengthAdjust="spacing" textLength="146.3643" x="27" y="250.3657">RoleId : integer &#171;FK&#187;</text><line style="stroke:#181818;stroke-width:1;" x1="8" x2="190.498" y1="257.6675" y2="257.6675"/><text fill="#000000" font-family="sans-serif" font-size="14" lengthAdjust="spacing" textLength="153.2344" x="13" y="274.6626">JoinedDate : datetime</text><text fill="#000000" font-family="sans-serif" font-size="14" lengthAdjust="spacing" textLength="113.1416" x="13" y="290.9595">Active : boolean</text></g><!--class Cats--><g class="entity" data-qualified-name="Cats" data-source-line="45" id="ent0006"><rect fill="#F1F1F1" height="107.4844" style="stroke:#181818;stroke-width:0.5;" width="184.498" x="503" y="182.63"/><text fill="#000000" font-family="sans-serif" font-size="14" lengthAdjust="spacing" textLength="75.4619" x="557.5181" y="200.6251">Categories</text><line style="stroke:#181818;stroke-width:0.5;" x1="504" x2="686.498" y1="208.9269" y2="208.9269"/><g data-visibility-modifier="IE_MANDATORY"><ellipse cx="514" cy="222.5753" fill="#000000" rx="3" ry="3" style="stroke:#000000;stroke-width:1;"/></g><text fill="#000000" font-family="sans-serif" font-size="14" lengthAdjust="spacing" textLength="103.8584" x="523" y="225.922">Id : serial &#171;PK&#187;</text><line style="stroke:#181818;stroke-width:1;" x1="504" x2="686.498" y1="233.2238" y2="233.2238"/><g data-visibility-modifier="IE_MANDATORY"><ellipse cx="514" cy="246.8722" fill="#000000" rx="3" ry="3" style="stroke:#000000;stroke-width:1;"/></g><text fill="#000000" font-family="sans-serif" font-size="14" lengthAdjust="spacing" textLength="158.498" x="523" y="250.2189">GroupId : integer &#171;FK&#187;</text><text fill="#000000" font-family="sans-serif" font-size="14" lengthAdjust="spacing" textLength="82.7969" x="523" y="266.5157">Name : text</text><text fill="#000000" font-family="sans-serif" font-size="14" lengthAdjust="spacing" textLength="105.4717" x="523" y="282.8126">ColorHex : text</text></g><!--class Sellers--><g class="entity" data-qualified-name="Sellers" data-source-line="53" id="ent0007"><rect fill="#F1F1F1" height="107.4844" style="stroke:#181818;stroke-width:0.5;" width="184.498" x="494" y="358.27"/><text fill="#000000" font-family="sans-serif" font-size="14" lengthAdjust="spacing" textLength="46.9424" x="562.7778" y="376.2651">Sellers</text><line style="stroke:#181818;stroke-width:0.5;" x1="495" x2="677.498" y1="384.5669" y2="384.5669"/><g data-visibility-modifier="IE_MANDATORY"><ellipse cx="505" cy="398.2153" fill="#000000" rx="3" ry="3" style="stroke:#000000;stroke-width:1;"/></g><text fill="#000000" font-family="sans-serif" font-size="14" lengthAdjust="spacing" textLength="103.8584" x="514" y="401.562">Id : serial &#171;PK&#187;</text><line style="stroke:#181818;stroke-width:1;" x1="495" x2="677.498" y1="408.8638" y2="408.8638"/><g data-visibility-modifier="IE_MANDATORY"><ellipse cx="505" cy="422.5122" fill="#000000" rx="3" ry="3" style="stroke:#000000;stroke-width:1;"/></g><text fill="#000000" font-family="sans-serif" font-size="14" lengthAdjust="spacing" textLength="158.498" x="514" y="425.8589">GroupId : integer &#171;FK&#187;</text><text fill="#000000" font-family="sans-serif" font-size="14" lengthAdjust="spacing" textLength="82.7969" x="514" y="442.1557">Name : text</text><text fill="#000000" font-family="sans-serif" font-size="14" lengthAdjust="spacing" textLength="121.2285" x="514" y="458.4526">Description : text</text></g><!--class ProdData--><g class="entity" data-qualified-name="ProdData" data-source-line="61" id="ent0008"><rect fill="#F1F1F1" height="107.4844" style="stroke:#181818;stroke-width:0.5;" width="184.498" x="438" y="570.49"/><text fill="#000000" font-family="sans-serif" font-size="14" lengthAdjust="spacing" textLength="87.1377" x="486.6802" y="588.4851">ProductData</text><line style="stroke:#181818;stroke-width:0.5;" x1="439" x2="621.498" y1="596.7869" y2="596.7869"/><g data-visibility-modifier="IE_MANDATORY"><ellipse cx="449" cy="610.4353" fill="#000000" rx="3" ry="3" style="stroke:#000000;stroke-width:1;"/></g><text fill="#000000" font-family="sans-serif" font-size="14" lengthAdjust="spacing" textLength="103.8584" x="458" y="613.782">Id : serial &#171;PK&#187;</text><line style="stroke:#181818;stroke-width:1;" x1="439" x2="621.498" y1="621.0838" y2="621.0838"/><g data-visibility-modifier="IE_MANDATORY"><ellipse cx="449" cy="634.7322" fill="#000000" rx="3" ry="3" style="stroke:#000000;stroke-width:1;"/></g><text fill="#000000" font-family="sans-serif" font-size="14" lengthAdjust="spacing" textLength="158.498" x="458" y="638.0789">GroupId : integer &#171;FK&#187;</text><text fill="#000000" font-family="sans-serif" font-size="14" lengthAdjust="spacing" textLength="82.7969" x="458" y="654.3757">Name : text</text><text fill="#000000" font-family="sans-serif" font-size="14" lengthAdjust="spacing" textLength="121.2285" x="458" y="670.6726">Description : text</text></g><!--class DataCats--><g class="entity" data-qualified-name="DataCats" data-source-line="69" id="ent0009"><rect fill="#F1F1F1" height="74.8906" style="stroke:#181818;stroke-width:0.5;" width="228.7061" x="682.9" y="586.79"/><text fill="#000000" font-family="sans-serif" font-size="14" lengthAdjust="spacing" textLength="162.5996" x="715.9532" y="604.7851">ProductDataCategories</text><line style="stroke:#181818;stroke-width:0.5;" x1="683.9" x2="910.6061" y1="613.0869" y2="613.0869"/><g data-visibility-modifier="IE_MANDATORY"><ellipse cx="693.9" cy="626.7353" fill="#000000" rx="3" ry="3" style="stroke:#000000;stroke-width:1;"/></g><text fill="#000000" font-family="sans-serif" font-size="14" lengthAdjust="spacing" textLength="202.7061" x="702.9" y="630.082">ProductDataId : integer &#171;FK&#187;</text><g data-visibility-modifier="IE_MANDATORY"><ellipse cx="693.9" cy="643.0322" fill="#000000" rx="3" ry="3" style="stroke:#000000;stroke-width:1;"/></g><text fill="#000000" font-family="sans-serif" font-size="14" lengthAdjust="spacing" textLength="179.5186" x="702.9" y="646.3789">CategoryId : integer &#171;FK&#187;</text><line style="stroke:#181818;stroke-width:0.5;" x1="683.9" x2="910.6061" y1="653.6806" y2="653.6806"/></g><!--class Receipts--><g class="entity" data-qualified-name="Receipts" data-source-line="74" id="ent0010"><rect fill="#F1F1F1" height="196.9688" style="stroke:#181818;stroke-width:0.5;" width="253.1582" x="124.67" y="525.75"/><text fill="#000000" font-family="sans-serif" font-size="14" lengthAdjust="spacing" textLength="60.2109" x="221.1436" y="543.7451">Receipts</text><line style="stroke:#181818;stroke-width:0.5;" x1="125.67" x2="376.8282" y1="552.0469" y2="552.0469"/><g data-visibility-modifier="IE_MANDATORY"><ellipse cx="135.67" cy="565.6953" fill="#000000" rx="3" ry="3" style="stroke:#000000;stroke-width:1;"/></g><text fill="#000000" font-family="sans-serif" font-size="14" lengthAdjust="spacing" textLength="103.8584" x="144.67" y="569.042">Id : serial &#171;PK&#187;</text><line style="stroke:#181818;stroke-width:1;" x1="125.67" x2="376.8282" y1="576.3438" y2="576.3438"/><g data-visibility-modifier="IE_MANDATORY"><ellipse cx="135.67" cy="589.9922" fill="#000000" rx="3" ry="3" style="stroke:#000000;stroke-width:1;"/></g><text fill="#000000" font-family="sans-serif" font-size="14" lengthAdjust="spacing" textLength="158.498" x="144.67" y="593.3389">GroupId : integer &#171;FK&#187;</text><g data-visibility-modifier="IE_MANDATORY"><ellipse cx="135.67" cy="606.2891" fill="#000000" rx="3" ry="3" style="stroke:#000000;stroke-width:1;"/></g><text fill="#000000" font-family="sans-serif" font-size="14" lengthAdjust="spacing" textLength="227.1582" x="144.67" y="609.6357">CreatedByMemberId : uuid &#171;FK&#187;</text><g data-visibility-modifier="IE_MANDATORY"><ellipse cx="135.67" cy="622.5859" fill="#000000" rx="3" ry="3" style="stroke:#000000;stroke-width:1;"/></g><text fill="#000000" font-family="sans-serif" font-size="14" lengthAdjust="spacing" textLength="155.2168" x="144.67" y="625.9326">SellerId : integer &#171;FK&#187;</text><text fill="#000000" font-family="sans-serif" font-size="14" lengthAdjust="spacing" textLength="158.9014" x="144.67" y="642.2295">TotalAmount : decimal</text><text fill="#000000" font-family="sans-serif" font-size="14" lengthAdjust="spacing" textLength="172.1973" x="144.67" y="658.5264">PaymentDate : datetime</text><text fill="#000000" font-family="sans-serif" font-size="14" lengthAdjust="spacing" textLength="165.9902" x="144.67" y="674.8232">CreatedDate : datetime</text><line style="stroke:#181818;stroke-width:1;" x1="125.67" x2="376.8282" y1="682.125" y2="682.125"/><text fill="#000000" font-family="sans-serif" font-size="14" lengthAdjust="spacing" textLength="124.2227" x="130.67" y="699.1201">SourceType : text</text><text fill="#000000" font-family="sans-serif" font-size="14" lengthAdjust="spacing" textLength="162.0254" x="130.67" y="715.417">OriginalFileName : text</text></g><!--class ProdEntries--><g class="entity" data-qualified-name="ProdEntries" data-source-line="88" id="ent0011"><rect fill="#F1F1F1" height="123.7813" style="stroke:#181818;stroke-width:0.5;" width="228.7061" x="136.9" y="782.72"/><text fill="#000000" font-family="sans-serif" font-size="14" lengthAdjust="spacing" textLength="102.4707" x="200.0177" y="800.7151">ProductEntries</text><line style="stroke:#181818;stroke-width:0.5;" x1="137.9" x2="364.6061" y1="809.0169" y2="809.0169"/><g data-visibility-modifier="IE_MANDATORY"><ellipse cx="147.9" cy="822.6653" fill="#000000" rx="3" ry="3" style="stroke:#000000;stroke-width:1;"/></g><text fill="#000000" font-family="sans-serif" font-size="14" lengthAdjust="spacing" textLength="103.8584" x="156.9" y="826.012">Id : serial &#171;PK&#187;</text><line style="stroke:#181818;stroke-width:1;" x1="137.9" x2="364.6061" y1="833.3138" y2="833.3138"/><g data-visibility-modifier="IE_MANDATORY"><ellipse cx="147.9" cy="846.9622" fill="#000000" rx="3" ry="3" style="stroke:#000000;stroke-width:1;"/></g><text fill="#000000" font-family="sans-serif" font-size="14" lengthAdjust="spacing" textLength="168.4854" x="156.9" y="850.3089">ReceiptId : integer &#171;FK&#187;</text><g data-visibility-modifier="IE_MANDATORY"><ellipse cx="147.9" cy="863.2591" fill="#000000" rx="3" ry="3" style="stroke:#000000;stroke-width:1;"/></g><text fill="#000000" font-family="sans-serif" font-size="14" lengthAdjust="spacing" textLength="202.7061" x="156.9" y="866.6057">ProductDataId : integer &#171;FK&#187;</text><text fill="#000000" font-family="sans-serif" font-size="14" lengthAdjust="spacing" textLength="103.209" x="156.9" y="882.9026">Price : decimal</text><text fill="#000000" font-family="sans-serif" font-size="14" lengthAdjust="spacing" textLength="129.3086" x="156.9" y="899.1995">Quantity : decimal</text></g><!--link Users to Roles--><!--link GrpMem to Groups--><!--link Groups to GrpMem--><g class="link" data-entity-1="ent0004" data-entity-2="ent0005" data-link-type="crowfoot" data-source-line="133" id="lnk25"><path codeLine="133" d="M243.01,257.5 C223.54,257.5 219.11,257.5 199.77,257.5" fill="none" id="Groups-GrpMem" style="stroke:#181818;stroke-width:1;stroke-dasharray:7,7;"/><line style="stroke:#181818;stroke-width:1;" x1="247.01" x2="247.01" y1="253.5" y2="261.5"/><line style="stroke:#181818;stroke-width:1;" x1="244.01" x2="244.01" y1="253.5" y2="261.5"/><line style="stroke:#181818;stroke-width:1;" x1="243.01" x2="251.01" y1="257.5" y2="257.5"/><line style="stroke:#181818;stroke-width:1;" x1="199.77" x2="191.77" y1="257.5" y2="263.5"/><line style="stroke:#181818;stroke-width:1;" x1="199.77" x2="191.77" y1="257.5" y2="251.5"/><line style="stroke:#181818;stroke-width:1;" x1="199.77" x2="191.77" y1="257.5" y2="257.5"/><line style="stroke:#181818;stroke-width:1;" x1="201.77" x2="201.77" y1="261.5" y2="253.5"/></g><!--link Groups to Cats--><!--link Groups to Cats--><g class="link" data-entity-1="ent0004" data-entity-2="ent0006" data-link-type="crowfoot" data-source-line="136" id="lnk26"><path codeLine="136" d="M451.49,254.5 C470.96,254.5 465.39,254.5 484.73,254.5" fill="none" id="Groups-Cats-1" style="stroke:#181818;stroke-width:1;stroke-dasharray:7,7;"/><line style="stroke:#181818;stroke-width:1;" x1="447.49" x2="447.49" y1="258.5" y2="250.5"/><line style="stroke:#181818;stroke-width:1;" x1="450.49" x2="450.49" y1="258.5" y2="250.5"/><line style="stroke:#181818;stroke-width:1;" x1="451.49" x2="443.49" y1="254.5" y2="254.5"/><line style="stroke:#181818;stroke-width:1;" x1="494.73" x2="502.73" y1="254.5" y2="248.5"/><line style="stroke:#181818;stroke-width:1;" x1="494.73" x2="502.73" y1="254.5" y2="260.5"/><line style="stroke:#181818;stroke-width:1;" x1="494.73" x2="502.73" y1="254.5" y2="254.5"/><ellipse cx="488.73" cy="254.5" fill="none" rx="4" ry="4" style="stroke:#181818;stroke-width:1;"/></g><!--link Cats to Sellers--><!--link Sellers to ProdData--><!--link ProdData to DataCats--><!--link ProdData to DataCats--><g class="link" data-entity-1="ent0008" data-entity-2="ent0009" data-link-type="crowfoot" data-source-line="142" id="lnk30"><path codeLine="142" d="M630.88,637.5 C650.16,637.5 644.7,637.5 664.66,637.5" fill="none" id="ProdData-DataCats-1" style="stroke:#181818;stroke-width:1;stroke-dasharray:7,7;"/><line style="stroke:#181818;stroke-width:1;" x1="626.88" x2="626.88" y1="641.5" y2="633.5"/><line style="stroke:#181818;stroke-width:1;" x1="629.88" x2="629.88" y1="641.5" y2="633.5"/><line style="stroke:#181818;stroke-width:1;" x1="630.88" x2="622.88" y1="637.5" y2="637.5"/><line style="stroke:#181818;stroke-width:1;" x1="674.66" x2="682.66" y1="637.5" y2="631.5"/><line style="stroke:#181818;stroke-width:1;" x1="674.66" x2="682.66" y1="637.5" y2="643.5"/><line style="stroke:#181818;stroke-width:1;" x1="674.66" x2="682.66" y1="637.5" y2="637.5"/><ellipse cx="668.66" cy="637.5" fill="none" rx="4" ry="4" style="stroke:#181818;stroke-width:1;"/></g><!--link Groups to Receipts--><!--link Groups to Receipts--><g class="link" data-entity-1="ent0004" data-entity-2="ent0010" data-link-type="crowfoot" data-source-line="145" id="lnk31"><path codeLine="145" d="M335.64,306.69 C335.64,367.83 335.64,436.01 335.64,507.37" fill="none" id="Groups-Receipts-1" style="stroke:#181818;stroke-width:1;stroke-dasharray:7,7;"/><line style="stroke:#181818;stroke-width:1;" x1="331.64" x2="339.64" y1="302.69" y2="302.69"/><line style="stroke:#181818;stroke-width:1;" x1="331.64" x2="339.64" y1="305.69" y2="305.69"/><line style="stroke:#181818;stroke-width:1;" x1="335.64" x2="335.64" y1="306.69" y2="298.69"/><line style="stroke:#181818;stroke-width:1;" x1="335.64" x2="341.64" y1="517.37" y2="525.37"/><line style="stroke:#181818;stroke-width:1;" x1="335.64" x2="329.64" y1="517.37" y2="525.37"/><line style="stroke:#181818;stroke-width:1;" x1="335.64" x2="335.64" y1="517.37" y2="525.37"/><ellipse cx="335.64" cy="511.37" fill="none" rx="4" ry="4" style="stroke:#181818;stroke-width:1;"/></g><!--link Receipts to ProdEntries--><!--link Receipts to ProdEntries--><g class="link" data-entity-1="ent0010" data-entity-2="ent0011" data-link-type="crowfoot" data-source-line="148" id="lnk34"><path codeLine="148" d="M289.37,731.14 C289.37,751.28 289.37,755.93 289.37,774.35" fill="none" id="Receipts-ProdEntries-1" style="stroke:#181818;stroke-width:1;stroke-dasharray:7,7;"/><line style="stroke:#181818;stroke-width:1;" x1="285.37" x2="293.37" y1="727.14" y2="727.14"/><line style="stroke:#181818;stroke-width:1;" x1="285.37" x2="293.37" y1="730.14" y2="730.14"/><line style="stroke:#181818;stroke-width:1;" x1="289.37" x2="289.37" y1="731.14" y2="723.14"/><line style="stroke:#181818;stroke-width:1;" x1="289.37" x2="295.37" y1="774.35" y2="782.35"/><line style="stroke:#181818;stroke-width:1;" x1="289.37" x2="283.37" y1="774.35" y2="782.35"/><line style="stroke:#181818;stroke-width:1;" x1="289.37" x2="289.37" y1="774.35" y2="782.35"/><line style="stroke:#181818;stroke-width:1;" x1="293.37" x2="285.37" y1="772.35" y2="772.35"/></g><!--link Users to Groups--><!--link Users to Groups--><g class="link" data-entity-1="ent0002" data-entity-2="ent0004" data-link-type="crowfoot" data-source-line="128" id="lnk22"><path codeLine="128" d="M185.21,109.5 C237.76,109.5 289.56,109.5 289.56,109.5 C289.56,109.5 289.56,133.97 289.56,166.05" fill="none" id="Users-Groups-1" style="stroke:#181818;stroke-width:1;stroke-dasharray:7,7;"/><line style="stroke:#181818;stroke-width:1;" x1="181.21" x2="181.21" y1="113.5" y2="105.5"/><line style="stroke:#181818;stroke-width:1;" x1="184.21" x2="184.21" y1="113.5" y2="105.5"/><line style="stroke:#181818;stroke-width:1;" x1="185.21" x2="177.21" y1="109.5" y2="109.5"/><line style="stroke:#181818;stroke-width:1;" x1="289.56" x2="295.56" y1="166.05" y2="174.05"/><line style="stroke:#181818;stroke-width:1;" x1="289.56" x2="283.56" y1="166.05" y2="174.05"/><line style="stroke:#181818;stroke-width:1;" x1="289.56" x2="289.56" y1="166.05" y2="174.05"/><line style="stroke:#181818;stroke-width:1;" x1="293.56" x2="285.56" y1="164.05" y2="164.05"/></g><!--link Roles to GrpMem--><!--link Roles to GrpMem--><g class="link" data-entity-1="ent0003" data-entity-2="ent0005" data-link-type="crowfoot" data-source-line="130" id="lnk24"><path codeLine="130" d="M227.88,79.5 C202.13,79.5 186.59,79.5 186.59,79.5 C186.59,79.5 186.59,112.52 186.59,156.37" fill="none" id="Roles-GrpMem-1" style="stroke:#181818;stroke-width:1;stroke-dasharray:7,7;"/><line style="stroke:#181818;stroke-width:1;" x1="231.88" x2="231.88" y1="75.5" y2="83.5"/><line style="stroke:#181818;stroke-width:1;" x1="228.88" x2="228.88" y1="75.5" y2="83.5"/><line style="stroke:#181818;stroke-width:1;" x1="227.88" x2="235.88" y1="79.5" y2="79.5"/><line style="stroke:#181818;stroke-width:1;" x1="186.59" x2="192.59" y1="166.37" y2="174.37"/><line style="stroke:#181818;stroke-width:1;" x1="186.59" x2="180.59" y1="166.37" y2="174.37"/><line style="stroke:#181818;stroke-width:1;" x1="186.59" x2="186.59" y1="166.37" y2="174.37"/><ellipse cx="186.59" cy="160.37" fill="none" rx="4" ry="4" style="stroke:#181818;stroke-width:1;"/></g><!--link Users to GrpMem--><g class="link" data-entity-1="ent0002" data-entity-2="ent0005" data-link-type="crowfoot" data-source-line="129" id="lnk23"><path codeLine="129" d="M99.25,122.87 C99.25,141.62 99.25,146.78 99.25,166.13" fill="none" id="Users-GrpMem" style="stroke:#181818;stroke-width:1;stroke-dasharray:7,7;"/><line style="stroke:#181818;stroke-width:1;" x1="95.25" x2="103.25" y1="118.87" y2="118.87"/><line style="stroke:#181818;stroke-width:1;" x1="95.25" x2="103.25" y1="121.87" y2="121.87"/><line style="stroke:#181818;stroke-width:1;" x1="99.25" x2="99.25" y1="122.87" y2="114.87"/><line style="stroke:#181818;stroke-width:1;" x1="99.25" x2="105.25" y1="166.13" y2="174.13"/><line style="stroke:#181818;stroke-width:1;" x1="99.25" x2="93.25" y1="166.13" y2="174.13"/><line style="stroke:#181818;stroke-width:1;" x1="99.25" x2="99.25" y1="166.13" y2="174.13"/><line style="stroke:#181818;stroke-width:1;" x1="103.25" x2="95.25" y1="164.13" y2="164.13"/></g><!--link Groups to Sellers--><g class="link" data-entity-1="ent0004" data-entity-2="ent0007" data-link-type="crowfoot" data-source-line="137" id="lnk27"><path codeLine="137" d="M451.47,296.5 C481.3,296.5 498.5,296.5 498.5,296.5 C498.5,296.5 498.5,309.91 498.5,339.97" fill="none" id="Groups-Sellers" style="stroke:#181818;stroke-width:1;stroke-dasharray:7,7;"/><line style="stroke:#181818;stroke-width:1;" x1="447.47" x2="447.47" y1="300.5" y2="292.5"/><line style="stroke:#181818;stroke-width:1;" x1="450.47" x2="450.47" y1="300.5" y2="292.5"/><line style="stroke:#181818;stroke-width:1;" x1="451.47" x2="443.47" y1="296.5" y2="296.5"/><line style="stroke:#181818;stroke-width:1;" x1="498.5" x2="504.5" y1="349.97" y2="357.97"/><line style="stroke:#181818;stroke-width:1;" x1="498.5" x2="492.5" y1="349.97" y2="357.97"/><line style="stroke:#181818;stroke-width:1;" x1="498.5" x2="498.5" y1="349.97" y2="357.97"/><ellipse cx="498.5" cy="343.97" fill="none" rx="4" ry="4" style="stroke:#181818;stroke-width:1;"/></g><!--link Groups to ProdData--><g class="link" data-entity-1="ent0004" data-entity-2="ent0008" data-link-type="crowfoot" data-source-line="138" id="lnk28"><path codeLine="138" d="M451.47,293.5 C466.2,293.5 468.62,293.5 468.62,293.5 C468.62,293.5 468.62,458.64 468.62,552.36" fill="none" id="Groups-ProdData" style="stroke:#181818;stroke-width:1;stroke-dasharray:7,7;"/><line style="stroke:#181818;stroke-width:1;" x1="447.47" x2="447.47" y1="297.5" y2="289.5"/><line style="stroke:#181818;stroke-width:1;" x1="450.47" x2="450.47" y1="297.5" y2="289.5"/><line style="stroke:#181818;stroke-width:1;" x1="451.47" x2="443.47" y1="293.5" y2="293.5"/><line style="stroke:#181818;stroke-width:1;" x1="468.62" x2="474.62" y1="562.36" y2="570.36"/><line style="stroke:#181818;stroke-width:1;" x1="468.62" x2="462.62" y1="562.36" y2="570.36"/><line style="stroke:#181818;stroke-width:1;" x1="468.62" x2="468.62" y1="562.36" y2="570.36"/><ellipse cx="468.62" cy="556.36" fill="none" rx="4" ry="4" style="stroke:#181818;stroke-width:1;"/></g><!--link Cats to DataCats--><g class="link" data-entity-1="ent0006" data-entity-2="ent0009" data-link-type="crowfoot" data-source-line="141" id="lnk29"><path codeLine="141" d="M695.84,236.5 C749.89,236.5 799.55,236.5 799.55,236.5 C799.55,236.5 799.55,470.79 799.55,568.35" fill="none" id="Cats-DataCats" style="stroke:#181818;stroke-width:1;stroke-dasharray:7,7;"/><line style="stroke:#181818;stroke-width:1;" x1="691.84" x2="691.84" y1="240.5" y2="232.5"/><line style="stroke:#181818;stroke-width:1;" x1="694.84" x2="694.84" y1="240.5" y2="232.5"/><line style="stroke:#181818;stroke-width:1;" x1="695.84" x2="687.84" y1="236.5" y2="236.5"/><line style="stroke:#181818;stroke-width:1;" x1="799.55" x2="805.55" y1="578.35" y2="586.35"/><line style="stroke:#181818;stroke-width:1;" x1="799.55" x2="793.55" y1="578.35" y2="586.35"/><line style="stroke:#181818;stroke-width:1;" x1="799.55" x2="799.55" y1="578.35" y2="586.35"/><ellipse cx="799.55" cy="572.35" fill="none" rx="4" ry="4" style="stroke:#181818;stroke-width:1;"/></g><!--link GrpMem to Receipts--><g class="link" data-entity-1="ent0005" data-entity-2="ent0010" data-link-type="crowfoot" data-source-line="146" id="lnk32"><path codeLine="146" d="M158.08,306.69 C158.08,367.83 158.08,436.01 158.08,507.37" fill="none" id="GrpMem-Receipts" style="stroke:#181818;stroke-width:1;stroke-dasharray:7,7;"/><line style="stroke:#181818;stroke-width:1;" x1="154.08" x2="162.08" y1="302.69" y2="302.69"/><line style="stroke:#181818;stroke-width:1;" x1="154.08" x2="162.08" y1="305.69" y2="305.69"/><line style="stroke:#181818;stroke-width:1;" x1="158.08" x2="158.08" y1="306.69" y2="298.69"/><line style="stroke:#181818;stroke-width:1;" x1="158.08" x2="164.08" y1="517.37" y2="525.37"/><line style="stroke:#181818;stroke-width:1;" x1="158.08" x2="152.08" y1="517.37" y2="525.37"/><line style="stroke:#181818;stroke-width:1;" x1="158.08" x2="158.08" y1="517.37" y2="525.37"/><ellipse cx="158.08" cy="511.37" fill="none" rx="4" ry="4" style="stroke:#181818;stroke-width:1;"/></g><!--link Sellers to Receipts--><g class="link" data-entity-1="ent0007" data-entity-2="ent0010" data-link-type="crowfoot" data-source-line="147" id="lnk33"><path codeLine="147" d="M536.83,473.95 C536.83,512.11 536.83,548.5 536.83,548.5 C536.83,548.5 472.45,548.5 396.17,548.5" fill="none" id="Sellers-Receipts" style="stroke:#181818;stroke-width:1;stroke-dasharray:7,7;"/><line style="stroke:#181818;stroke-width:1;" x1="532.83" x2="540.83" y1="469.95" y2="469.95"/><line style="stroke:#181818;stroke-width:1;" x1="532.83" x2="540.83" y1="472.95" y2="472.95"/><line style="stroke:#181818;stroke-width:1;" x1="536.83" x2="536.83" y1="473.95" y2="465.95"/><line style="stroke:#181818;stroke-width:1;" x1="386.17" x2="378.17" y1="548.5" y2="554.5"/><line style="stroke:#181818;stroke-width:1;" x1="386.17" x2="378.17" y1="548.5" y2="542.5"/><line style="stroke:#181818;stroke-width:1;" x1="386.17" x2="378.17" y1="548.5" y2="548.5"/><ellipse cx="392.17" cy="548.5" fill="none" rx="4" ry="4" style="stroke:#181818;stroke-width:1;"/></g><!--link ProdData to ProdEntries--><g class="link" data-entity-1="ent0008" data-entity-2="ent0011" data-link-type="crowfoot" data-source-line="149" id="lnk35"><path codeLine="149" d="M530.25,686.36 C530.25,751.87 530.25,845.5 530.25,845.5 C530.25,845.5 460.89,845.5 383.94,845.5" fill="none" id="ProdData-ProdEntries" style="stroke:#181818;stroke-width:1;stroke-dasharray:7,7;"/><line style="stroke:#181818;stroke-width:1;" x1="526.25" x2="534.25" y1="682.36" y2="682.36"/><line style="stroke:#181818;stroke-width:1;" x1="526.25" x2="534.25" y1="685.36" y2="685.36"/><line style="stroke:#181818;stroke-width:1;" x1="530.25" x2="530.25" y1="686.36" y2="678.36"/><line style="stroke:#181818;stroke-width:1;" x1="373.94" x2="365.94" y1="845.5" y2="851.5"/><line style="stroke:#181818;stroke-width:1;" x1="373.94" x2="365.94" y1="845.5" y2="839.5"/><line style="stroke:#181818;stroke-width:1;" x1="373.94" x2="365.94" y1="845.5" y2="845.5"/><ellipse cx="379.94" cy="845.5" fill="none" rx="4" ry="4" style="stroke:#181818;stroke-width:1;"/></g><?plantuml-src lLRVZ-8s47xFNp6wbm8wLjUV3-Xq4iUoBEqUK60hLLKVVCb0h7NYo7PWqUtzxnqxTZORmcaVsl92FECPVvxvPiOfJn1YhcA1aNxWUS4Koq3m7CsfG93AfBAXq2bBv97dUzWnePicIfPv4akLeu9tKVGT38T3sAp6a_bY1flfTal_6oiarPRlKqFxTC5Ywoj5KMXOshFSqHfsF4-WO2RLSEGaBWq8AGlQt3WobmbgBE2NTqqSB7_mGWzYkjZEj_Ff1dfBnVSyPmAkcM6mKcIj3fZq7Qm8SyFD2TwCTR50Sqyw_GQO1lS5NoAWts2Um0ZAaYVm_ltgjmyVd9IixP_Tk60PqWw3ZyR9fXdZeYbOCQsFKYMtJAT1_lNvyBKKM1thlbuSI-uvWJy_k7bemzUCSb9KpghFrtaRB8-KnEP5RyAEzkqc2fd1XC9fnGdz6PwXKytrYi8cATeZ-2pfBYm_m_O9iyyXoZDbbm6XKpi8F3Uu9wuqK0nie3ln3MpGBfdvw_qgYM6TaCUnuGShxS0xeOrxgRXF3YrV6yrlNkKie598TOkF7TdSe10XMFxxlq1mZJfMl31SvbuCJHGh9PCoDhQ071AxTjNqlq2vWAIL72-gmzFOUP5ItiMfQqEpF356GkGhr2_-ZRiFV2bzF5L5qKtlAk-NV6obOMASKICsbjeOyum9ttHE6LsXY_JVA64FV2DB5UFMZeD022iEpVI62snaheijqzpKoR4Yltvbt7oOBqRk5UbTAHvZAoQ_bwn2-Ip-6aR6pN8zcLx3tVZFvVqMPklvTPXSATS4DNQSt4cAYmQJ8hWBsolHuH8OJJPokUCn7BWkwLfxHPaaUr8M2W-qtPdvOQTa1h6IMjjXA0-4NP9MKHzwH7rbGQtb4RuV-L74Q3QwwH1Lw-5VAKyIpFzMTguElSvR_J02tsPX6CR049uh9lADj-sasXe5YvRMbbSuuSTHtOzwz0OWtAxuwAeFI8FOMO1sxmpRLVkHKzSUwJsH3uE7A7XggKERYUf-qqOKYZwW-cdqN9-z2GLSCI5Em0JVK_k72cXrk_xPBQj3Wtrm-VC80dDxzyu-xEX7zLaTmBsHTVC7AiDZ8iJOuh0r2JDHOZkHbQrFGVKGEDFPh4M1iElftNWxNousj_DLU6NTEphLJ4ougdXBwAsFjrLcteB0dUdxDvWbPVKEmvog6wt_ULALimVvz7HrzVGbW6l97AWAi9N9MaP-d0LDE8KXtY_DQCj4vZk-BnLpzTLRE-fiY3hzfWbvTPb-AGeCUYcjYKFUVQFGS2VtFAvewBVLxAdvrLQG_GsrkvpwIE-ZD4PcRKmrNNn5jSM1scrvJHqVZYPbsd0Qkdy0?></g></svg>