<?plantuml 1.2026.2beta3?><svg xmlns="http://www.w3.org/2000/svg" xmlns:xlink="http://www.w3.org/1999/xlink" contentStyleType="text/css" data-diagram-type="CLASS" height="1117px" preserveAspectRatio="none" style="width:1107px;height:1117px;background:#FFFFFF;" version="1.1" viewBox="0 0 1107 1117" width="1107px" zoomAndPan="magnify"><defs/><g><!--class Users--><g class="entity" data-qualified-name="Users" data-source-line="9" id="ent0002"><rect fill="#F1F1F1" height="140.0781" style="stroke:#181818;stroke-width:0.5;" width="181.8662" x="178.56" y="7"/><text fill="#000000" font-family="sans-serif" font-size="14" lengthAdjust="spacing" textLength="89.5371" x="224.7246" y="24.9951">AspNetUsers</text><line style="stroke:#181818;stroke-width:0.5;" x1="179.56" x2="359.4262" y1="33.2969" y2="33.2969"/><g data-visibility-modifier="IE_MANDATORY"><ellipse cx="189.56" cy="46.9453" fill="#000000" rx="3" ry="3" style="stroke:#000000;stroke-width:1;"/></g><text fill="#000000" font-family="sans-serif" font-size="14" lengthAdjust="spacing" textLength="96.3594" x="198.56" y="50.292">Id : uuid &#171;PK&#187;</text><line style="stroke:#181818;stroke-width:1;" x1="179.56" x2="359.4262" y1="57.5938" y2="57.5938"/><text fill="#000000" font-family="sans-serif" font-size="14" lengthAdjust="spacing" textLength="114.707" x="184.56" y="74.5889">UserName : text</text><text fill="#000000" font-family="sans-serif" font-size="14" lengthAdjust="spacing" textLength="80.3359" x="184.56" y="90.8857">Email : text</text><text fill="#000000" font-family="sans-serif" font-size="14" lengthAdjust="spacing" textLength="143.0352" x="184.56" y="107.1826">PasswordHash : text</text><text fill="#000000" font-family="sans-serif" font-size="14" lengthAdjust="spacing" textLength="161.54" x="184.56" y="123.4795">CreatedDate: datetime</text><text fill="#000000" font-family="sans-serif" font-size="14" lengthAdjust="spacing" textLength="169.8662" x="184.56" y="139.7764">UpdatedDate : datetime</text></g><!--class Roles--><g class="entity" data-qualified-name="Roles" data-source-line="19" id="ent0003"><rect fill="#F1F1F1" height="74.8906" style="stroke:#181818;stroke-width:0.5;" width="129.8584" x="420.57" y="39.59"/><text fill="#000000" font-family="sans-serif" font-size="14" lengthAdjust="spacing" textLength="38.0898" x="466.4543" y="57.5851">Roles</text><line style="stroke:#181818;stroke-width:0.5;" x1="421.57" x2="549.4284" y1="65.8869" y2="65.8869"/><g data-visibility-modifier="IE_MANDATORY"><ellipse cx="431.57" cy="79.5353" fill="#000000" rx="3" ry="3" style="stroke:#000000;stroke-width:1;"/></g><text fill="#000000" font-family="sans-serif" font-size="14" lengthAdjust="spacing" textLength="103.8584" x="440.57" y="82.882">Id : serial &#171;PK&#187;</text><line style="stroke:#181818;stroke-width:1;" x1="421.57" x2="549.4284" y1="90.1837" y2="90.1837"/><text fill="#000000" font-family="sans-serif" font-size="14" lengthAdjust="spacing" textLength="82.7969" x="426.57" y="107.1789">Name : text</text></g><!--class Groups--><g class="entity" data-qualified-name="Groups" data-source-line="25" id="ent0004"><rect fill="#F1F1F1" height="140.0781" style="stroke:#181818;stroke-width:0.5;" width="195.8662" x="427.56" y="207.08"/><text fill="#000000" font-family="sans-serif" font-size="14" lengthAdjust="spacing" textLength="50.2236" x="500.3813" y="225.0751">Groups</text><line style="stroke:#181818;stroke-width:0.5;" x1="428.56" x2="622.4262" y1="233.3769" y2="233.3769"/><g data-visibility-modifier="IE_MANDATORY"><ellipse cx="438.56" cy="247.0253" fill="#000000" rx="3" ry="3" style="stroke:#000000;stroke-width:1;"/></g><text fill="#000000" font-family="sans-serif" font-size="14" lengthAdjust="spacing" textLength="103.8584" x="447.56" y="250.372">Id : serial &#171;PK&#187;</text><line style="stroke:#181818;stroke-width:1;" x1="428.56" x2="622.4262" y1="257.6737" y2="257.6737"/><g data-visibility-modifier="IE_MANDATORY"><ellipse cx="438.56" cy="271.3222" fill="#000000" rx="3" ry="3" style="stroke:#000000;stroke-width:1;"/></g><text fill="#000000" font-family="sans-serif" font-size="14" lengthAdjust="spacing" textLength="141.6816" x="447.56" y="274.6689">OwnerId : uuid &#171;FK&#187;</text><text fill="#000000" font-family="sans-serif" font-size="14" lengthAdjust="spacing" textLength="82.7969" x="447.56" y="290.9657">Name : text</text><text fill="#000000" font-family="sans-serif" font-size="14" lengthAdjust="spacing" textLength="136.5752" x="447.56" y="307.2626">IsPersonal: boolean</text><text fill="#000000" font-family="sans-serif" font-size="14" lengthAdjust="spacing" textLength="165.9902" x="447.56" y="323.5595">CreatedDate : datetime</text><text fill="#000000" font-family="sans-serif" font-size="14" lengthAdjust="spacing" textLength="169.8662" x="447.56" y="339.8564">UpdatedDate : datetime</text></g><!--class GrpMem--><g class="entity" data-qualified-name="GrpMem" data-source-line="35" id="ent0005"><rect fill="#F1F1F1" height="140.0781" style="stroke:#181818;stroke-width:0.5;" width="195.8662" x="171.56" y="207.08"/><text fill="#000000" font-family="sans-serif" font-size="14" lengthAdjust="spacing" textLength="107.8096" x="215.5883" y="225.0751">GroupMembers</text><line style="stroke:#181818;stroke-width:0.5;" x1="172.56" x2="366.4262" y1="233.3769" y2="233.3769"/><g data-visibility-modifier="IE_MANDATORY"><ellipse cx="182.56" cy="247.0253" fill="#000000" rx="3" ry="3" style="stroke:#000000;stroke-width:1;"/></g><text fill="#000000" font-family="sans-serif" font-size="14" lengthAdjust="spacing" textLength="128.2695" x="191.56" y="250.372">UserId : uuid &#171;PK&#187;</text><g data-visibility-modifier="IE_MANDATORY"><ellipse cx="182.56" cy="263.3222" fill="#000000" rx="3" ry="3" style="stroke:#000000;stroke-width:1;"/></g><text fill="#000000" font-family="sans-serif" font-size="14" lengthAdjust="spacing" textLength="158.8877" x="191.56" y="266.6689">GroupId : integer &#171;PK&#187;</text><line style="stroke:#181818;stroke-width:1;" x1="172.56" x2="366.4262" y1="273.9706" y2="273.9706"/><g data-visibility-modifier="IE_MANDATORY"><ellipse cx="182.56" cy="287.6191" fill="#000000" rx="3" ry="3" style="stroke:#000000;stroke-width:1;"/></g><text fill="#000000" font-family="sans-serif" font-size="14" lengthAdjust="spacing" textLength="146.3643" x="191.56" y="290.9657">RoleId : integer &#171;FK&#187;</text><text fill="#000000" font-family="sans-serif" font-size="14" lengthAdjust="spacing" textLength="113.1416" x="191.56" y="307.2626">Active : boolean</text><text fill="#000000" font-family="sans-serif" font-size="14" lengthAdjust="spacing" textLength="153.2344" x="191.56" y="323.5595">JoinedDate : datetime</text><text fill="#000000" font-family="sans-serif" font-size="14" lengthAdjust="spacing" textLength="169.8662" x="191.56" y="339.8564">UpdatedDate : datetime</text></g><!--class MemHist--><g class="entity" data-qualified-name="MemHist" data-source-line="45" id="ent0006"><rect fill="#F1F1F1" height="205.2656" style="stroke:#181818;stroke-width:0.5;" width="190.9922" x="7" y="407.16"/><text fill="#000000" font-family="sans-serif" font-size="14" lengthAdjust="spacing" textLength="150.3223" x="27.335" y="425.1551">GroupMemberHistory</text><line style="stroke:#181818;stroke-width:0.5;" x1="8" x2="196.9922" y1="433.4569" y2="433.4569"/><g data-visibility-modifier="IE_MANDATORY"><ellipse cx="18" cy="447.1053" fill="#000000" rx="3" ry="3" style="stroke:#000000;stroke-width:1;"/></g><text fill="#000000" font-family="sans-serif" font-size="14" lengthAdjust="spacing" textLength="103.8584" x="27" y="450.452">Id : serial &#171;PK&#187;</text><g data-visibility-modifier="IE_MANDATORY"><ellipse cx="18" cy="463.4022" fill="#000000" rx="3" ry="3" style="stroke:#000000;stroke-width:1;"/></g><text fill="#000000" font-family="sans-serif" font-size="14" lengthAdjust="spacing" textLength="158.8877" x="27" y="466.7489">GroupId : integer &#171;PK&#187;</text><line style="stroke:#181818;stroke-width:1;" x1="8" x2="196.9922" y1="474.0506" y2="474.0506"/><g data-visibility-modifier="IE_MANDATORY"><ellipse cx="18" cy="487.6991" fill="#000000" rx="3" ry="3" style="stroke:#000000;stroke-width:1;"/></g><text fill="#000000" font-family="sans-serif" font-size="14" lengthAdjust="spacing" textLength="127.8799" x="27" y="491.0457">UserId : uuid &#171;FK&#187;</text><text fill="#000000" font-family="sans-serif" font-size="14" lengthAdjust="spacing" textLength="164.9922" x="27" y="507.3426">ChangedByUserId: uuid</text><text fill="#000000" font-family="sans-serif" font-size="14" lengthAdjust="spacing" textLength="149.1807" x="27" y="523.6395">RoleIdBefore: integer</text><text fill="#000000" font-family="sans-serif" font-size="14" lengthAdjust="spacing" textLength="137.4639" x="27" y="539.9364">RoleIdAfter: integer</text><text fill="#000000" font-family="sans-serif" font-size="14" lengthAdjust="spacing" textLength="154.7725" x="27" y="556.2332">ActiveBefore: boolean</text><text fill="#000000" font-family="sans-serif" font-size="14" lengthAdjust="spacing" textLength="143.0557" x="27" y="572.5301">ActiveAfter: boolean</text><text fill="#000000" font-family="sans-serif" font-size="14" lengthAdjust="spacing" textLength="81.9287" x="27" y="588.827">Notes : text</text><text fill="#000000" font-family="sans-serif" font-size="14" lengthAdjust="spacing" textLength="154.3691" x="27" y="605.1239">ChangedAt : datetime</text></g><!--class Cats--><g class="entity" data-qualified-name="Cats" data-source-line="59" id="ent0007"><rect fill="#F1F1F1" height="140.0781" style="stroke:#181818;stroke-width:0.5;" width="184.8877" x="683.05" y="207.08"/><text fill="#000000" font-family="sans-serif" font-size="14" lengthAdjust="spacing" textLength="75.4619" x="737.7629" y="225.0751">Categories</text><line style="stroke:#181818;stroke-width:0.5;" x1="684.05" x2="866.9377" y1="233.3769" y2="233.3769"/><g data-visibility-modifier="IE_MANDATORY"><ellipse cx="694.05" cy="247.0253" fill="#000000" rx="3" ry="3" style="stroke:#000000;stroke-width:1;"/></g><text fill="#000000" font-family="sans-serif" font-size="14" lengthAdjust="spacing" textLength="103.8584" x="703.05" y="250.372">Id : serial &#171;PK&#187;</text><g data-visibility-modifier="IE_MANDATORY"><ellipse cx="694.05" cy="263.3222" fill="#000000" rx="3" ry="3" style="stroke:#000000;stroke-width:1;"/></g><text fill="#000000" font-family="sans-serif" font-size="14" lengthAdjust="spacing" textLength="158.8877" x="703.05" y="266.6689">GroupId : integer &#171;PK&#187;</text><line style="stroke:#181818;stroke-width:1;" x1="684.05" x2="866.9377" y1="273.9706" y2="273.9706"/><text fill="#000000" font-family="sans-serif" font-size="14" lengthAdjust="spacing" textLength="82.7969" x="689.05" y="290.9657">Name : text</text><text fill="#000000" font-family="sans-serif" font-size="14" lengthAdjust="spacing" textLength="105.4717" x="689.05" y="307.2626">ColorHex : text</text><text fill="#000000" font-family="sans-serif" font-size="14" lengthAdjust="spacing" textLength="161.54" x="689.05" y="323.5595">CreatedDate: datetime</text><text fill="#000000" font-family="sans-serif" font-size="14" lengthAdjust="spacing" textLength="169.8662" x="689.05" y="339.8564">UpdatedDate : datetime</text></g><!--class Sellers--><g class="entity" data-qualified-name="Sellers" data-source-line="69" id="ent0008"><rect fill="#F1F1F1" height="140.0781" style="stroke:#181818;stroke-width:0.5;" width="184.8877" x="683.05" y="439.75"/><text fill="#000000" font-family="sans-serif" font-size="14" lengthAdjust="spacing" textLength="46.9424" x="752.0227" y="457.7451">Sellers</text><line style="stroke:#181818;stroke-width:0.5;" x1="684.05" x2="866.9377" y1="466.0469" y2="466.0469"/><g data-visibility-modifier="IE_MANDATORY"><ellipse cx="694.05" cy="479.6953" fill="#000000" rx="3" ry="3" style="stroke:#000000;stroke-width:1;"/></g><text fill="#000000" font-family="sans-serif" font-size="14" lengthAdjust="spacing" textLength="103.8584" x="703.05" y="483.042">Id : serial &#171;PK&#187;</text><g data-visibility-modifier="IE_MANDATORY"><ellipse cx="694.05" cy="495.9922" fill="#000000" rx="3" ry="3" style="stroke:#000000;stroke-width:1;"/></g><text fill="#000000" font-family="sans-serif" font-size="14" lengthAdjust="spacing" textLength="158.8877" x="703.05" y="499.3389">GroupId : integer &#171;PK&#187;</text><line style="stroke:#181818;stroke-width:1;" x1="684.05" x2="866.9377" y1="506.6406" y2="506.6406"/><text fill="#000000" font-family="sans-serif" font-size="14" lengthAdjust="spacing" textLength="82.7969" x="689.05" y="523.6357">Name : text</text><text fill="#000000" font-family="sans-serif" font-size="14" lengthAdjust="spacing" textLength="121.2285" x="689.05" y="539.9326">Description : text</text><text fill="#000000" font-family="sans-serif" font-size="14" lengthAdjust="spacing" textLength="161.54" x="689.05" y="556.2295">CreatedDate: datetime</text><text fill="#000000" font-family="sans-serif" font-size="14" lengthAdjust="spacing" textLength="169.8662" x="689.05" y="572.5264">UpdatedDate : datetime</text></g><!--class ProdData--><g class="entity" data-qualified-name="ProdData" data-source-line="79" id="ent0009"><rect fill="#F1F1F1" height="140.0781" style="stroke:#181818;stroke-width:0.5;" width="184.8877" x="627.05" y="705.02"/><text fill="#000000" font-family="sans-serif" font-size="14" lengthAdjust="spacing" textLength="87.1377" x="675.925" y="723.0151">ProductData</text><line style="stroke:#181818;stroke-width:0.5;" x1="628.05" x2="810.9377" y1="731.3169" y2="731.3169"/><g data-visibility-modifier="IE_MANDATORY"><ellipse cx="638.05" cy="744.9653" fill="#000000" rx="3" ry="3" style="stroke:#000000;stroke-width:1;"/></g><text fill="#000000" font-family="sans-serif" font-size="14" lengthAdjust="spacing" textLength="103.8584" x="647.05" y="748.312">Id : serial &#171;PK&#187;</text><g data-visibility-modifier="IE_MANDATORY"><ellipse cx="638.05" cy="761.2622" fill="#000000" rx="3" ry="3" style="stroke:#000000;stroke-width:1;"/></g><text fill="#000000" font-family="sans-serif" font-size="14" lengthAdjust="spacing" textLength="158.8877" x="647.05" y="764.6089">GroupId : integer &#171;PK&#187;</text><line style="stroke:#181818;stroke-width:1;" x1="628.05" x2="810.9377" y1="771.9106" y2="771.9106"/><text fill="#000000" font-family="sans-serif" font-size="14" lengthAdjust="spacing" textLength="82.7969" x="633.05" y="788.9057">Name : text</text><text fill="#000000" font-family="sans-serif" font-size="14" lengthAdjust="spacing" textLength="121.2285" x="633.05" y="805.2026">Description : text</text><text fill="#000000" font-family="sans-serif" font-size="14" lengthAdjust="spacing" textLength="161.54" x="633.05" y="821.4995">CreatedDate: datetime</text><text fill="#000000" font-family="sans-serif" font-size="14" lengthAdjust="spacing" textLength="169.8662" x="633.05" y="837.7964">UpdatedDate : datetime</text></g><!--class DataCats--><g class="entity" data-qualified-name="DataCats" data-source-line="89" id="ent0010"><rect fill="#F1F1F1" height="91.1875" style="stroke:#181818;stroke-width:0.5;" width="228.7061" x="872.14" y="729.46"/><text fill="#000000" font-family="sans-serif" font-size="14" lengthAdjust="spacing" textLength="162.5996" x="905.1932" y="747.4551">ProductDataCategories</text><line style="stroke:#181818;stroke-width:0.5;" x1="873.14" x2="1099.8461" y1="755.7569" y2="755.7569"/><g data-visibility-modifier="IE_MANDATORY"><ellipse cx="883.14" cy="769.4053" fill="#000000" rx="3" ry="3" style="stroke:#000000;stroke-width:1;"/></g><text fill="#000000" font-family="sans-serif" font-size="14" lengthAdjust="spacing" textLength="202.7061" x="892.14" y="772.752">ProductDataId : integer &#171;FK&#187;</text><g data-visibility-modifier="IE_MANDATORY"><ellipse cx="883.14" cy="785.7022" fill="#000000" rx="3" ry="3" style="stroke:#000000;stroke-width:1;"/></g><text fill="#000000" font-family="sans-serif" font-size="14" lengthAdjust="spacing" textLength="179.5186" x="892.14" y="789.0489">CategoryId : integer &#171;FK&#187;</text><g data-visibility-modifier="IE_MANDATORY"><ellipse cx="883.14" cy="801.9991" fill="#000000" rx="3" ry="3" style="stroke:#000000;stroke-width:1;"/></g><text fill="#000000" font-family="sans-serif" font-size="14" lengthAdjust="spacing" textLength="158.498" x="892.14" y="805.3457">GroupId : integer &#171;FK&#187;</text><line style="stroke:#181818;stroke-width:0.5;" x1="873.14" x2="1099.8461" y1="812.6475" y2="812.6475"/></g><!--class Receipts--><g class="entity" data-qualified-name="Receipts" data-source-line="95" id="ent0011"><rect fill="#F1F1F1" height="205.2656" style="stroke:#181818;stroke-width:0.5;" width="253.1582" x="313.92" y="672.42"/><text fill="#000000" font-family="sans-serif" font-size="14" lengthAdjust="spacing" textLength="60.2109" x="410.3936" y="690.4151">Receipts</text><line style="stroke:#181818;stroke-width:0.5;" x1="314.92" x2="566.0782" y1="698.7169" y2="698.7169"/><g data-visibility-modifier="IE_MANDATORY"><ellipse cx="324.92" cy="712.3653" fill="#000000" rx="3" ry="3" style="stroke:#000000;stroke-width:1;"/></g><text fill="#000000" font-family="sans-serif" font-size="14" lengthAdjust="spacing" textLength="103.8584" x="333.92" y="715.712">Id : serial &#171;PK&#187;</text><g data-visibility-modifier="IE_MANDATORY"><ellipse cx="324.92" cy="728.6622" fill="#000000" rx="3" ry="3" style="stroke:#000000;stroke-width:1;"/></g><text fill="#000000" font-family="sans-serif" font-size="14" lengthAdjust="spacing" textLength="158.8877" x="333.92" y="732.0089">GroupId : integer &#171;PK&#187;</text><line style="stroke:#181818;stroke-width:1;" x1="314.92" x2="566.0782" y1="739.3106" y2="739.3106"/><g data-visibility-modifier="IE_MANDATORY"><ellipse cx="324.92" cy="752.9591" fill="#000000" rx="3" ry="3" style="stroke:#000000;stroke-width:1;"/></g><text fill="#000000" font-family="sans-serif" font-size="14" lengthAdjust="spacing" textLength="227.1582" x="333.92" y="756.3057">CreatedByMemberId : uuid &#171;FK&#187;</text><g data-visibility-modifier="IE_MANDATORY"><ellipse cx="324.92" cy="769.2559" fill="#000000" rx="3" ry="3" style="stroke:#000000;stroke-width:1;"/></g><text fill="#000000" font-family="sans-serif" font-size="14" lengthAdjust="spacing" textLength="155.2168" x="333.92" y="772.6026">SellerId : integer &#171;FK&#187;</text><text fill="#000000" font-family="sans-serif" font-size="14" lengthAdjust="spacing" textLength="158.9014" x="333.92" y="788.8995">TotalAmount : decimal</text><text fill="#000000" font-family="sans-serif" font-size="14" lengthAdjust="spacing" textLength="172.1973" x="333.92" y="805.1964">PaymentDate : datetime</text><text fill="#000000" font-family="sans-serif" font-size="14" lengthAdjust="spacing" textLength="124.2227" x="333.92" y="821.4932">SourceType : text</text><text fill="#000000" font-family="sans-serif" font-size="14" lengthAdjust="spacing" textLength="162.0254" x="333.92" y="837.7901">OriginalFileName : text</text><text fill="#000000" font-family="sans-serif" font-size="14" lengthAdjust="spacing" textLength="161.54" x="333.92" y="854.087">CreatedDate: datetime</text><text fill="#000000" font-family="sans-serif" font-size="14" lengthAdjust="spacing" textLength="169.8662" x="333.92" y="870.3839">UpdatedDate : datetime</text></g><!--class ProdEntries--><g class="entity" data-qualified-name="ProdEntries" data-source-line="109" id="ent0012"><rect fill="#F1F1F1" height="172.6719" style="stroke:#181818;stroke-width:0.5;" width="228.7061" x="326.14" y="937.69"/><text fill="#000000" font-family="sans-serif" font-size="14" lengthAdjust="spacing" textLength="102.4707" x="389.2577" y="955.6851">ProductEntries</text><line style="stroke:#181818;stroke-width:0.5;" x1="327.14" x2="553.8461" y1="963.9869" y2="963.9869"/><g data-visibility-modifier="IE_MANDATORY"><ellipse cx="337.14" cy="977.6353" fill="#000000" rx="3" ry="3" style="stroke:#000000;stroke-width:1;"/></g><text fill="#000000" font-family="sans-serif" font-size="14" lengthAdjust="spacing" textLength="103.8584" x="346.14" y="980.982">Id : serial &#171;PK&#187;</text><g data-visibility-modifier="IE_MANDATORY"><ellipse cx="337.14" cy="993.9322" fill="#000000" rx="3" ry="3" style="stroke:#000000;stroke-width:1;"/></g><text fill="#000000" font-family="sans-serif" font-size="14" lengthAdjust="spacing" textLength="158.8877" x="346.14" y="997.2789">GroupId : integer &#171;PK&#187;</text><line style="stroke:#181818;stroke-width:1;" x1="327.14" x2="553.8461" y1="1004.5806" y2="1004.5806"/><g data-visibility-modifier="IE_MANDATORY"><ellipse cx="337.14" cy="1018.2291" fill="#000000" rx="3" ry="3" style="stroke:#000000;stroke-width:1;"/></g><text fill="#000000" font-family="sans-serif" font-size="14" lengthAdjust="spacing" textLength="168.4854" x="346.14" y="1021.5757">ReceiptId : integer &#171;FK&#187;</text><g data-visibility-modifier="IE_MANDATORY"><ellipse cx="337.14" cy="1034.5259" fill="#000000" rx="3" ry="3" style="stroke:#000000;stroke-width:1;"/></g><text fill="#000000" font-family="sans-serif" font-size="14" lengthAdjust="spacing" textLength="202.7061" x="346.14" y="1037.8726">ProductDataId : integer &#171;FK&#187;</text><text fill="#000000" font-family="sans-serif" font-size="14" lengthAdjust="spacing" textLength="103.209" x="346.14" y="1054.1695">Price : decimal</text><text fill="#000000" font-family="sans-serif" font-size="14" lengthAdjust="spacing" textLength="129.3086" x="346.14" y="1070.4664">Quantity : decimal</text><text fill="#000000" font-family="sans-serif" font-size="14" lengthAdjust="spacing" textLength="161.54" x="346.14" y="1086.7632">CreatedDate: datetime</text><text fill="#000000" font-family="sans-serif" font-size="14" lengthAdjust="spacing" textLength="169.8662" x="346.14" y="1103.0601">UpdatedDate : datetime</text></g><!--link Users to Roles--><!--link GrpMem to Groups--><!--link Groups to GrpMem--><g class="link" data-entity-1="ent0004" data-entity-2="ent0005" data-link-type="crowfoot" data-source-line="135" id="lnk25"><path codeLine="135" d="M419.25,312.36 C399.79,312.36 395.36,312.36 375.9,312.36" fill="none" id="Groups-GrpMem" style="stroke:#181818;stroke-width:1;stroke-dasharray:7,7;"/><line style="stroke:#181818;stroke-width:1;" x1="423.25" x2="423.25" y1="308.36" y2="316.36"/><line style="stroke:#181818;stroke-width:1;" x1="420.25" x2="420.25" y1="308.36" y2="316.36"/><line style="stroke:#181818;stroke-width:1;" x1="419.25" x2="427.25" y1="312.36" y2="312.36"/><line style="stroke:#181818;stroke-width:1;" x1="375.9" x2="367.9" y1="312.36" y2="318.36"/><line style="stroke:#181818;stroke-width:1;" x1="375.9" x2="367.9" y1="312.36" y2="306.36"/><line style="stroke:#181818;stroke-width:1;" x1="375.9" x2="367.9" y1="312.36" y2="312.36"/><line style="stroke:#181818;stroke-width:1;" x1="377.9" x2="377.9" y1="316.36" y2="308.36"/></g><!--link Groups to Cats--><!--link Groups to Cats--><g class="link" data-entity-1="ent0004" data-entity-2="ent0007" data-link-type="crowfoot" data-source-line="138" id="lnk27"><path codeLine="138" d="M631.59,301.36 C651.01,301.36 645.35,301.36 664.59,301.36" fill="none" id="Groups-Cats-1" style="stroke:#181818;stroke-width:1;stroke-dasharray:7,7;"/><line style="stroke:#181818;stroke-width:1;" x1="627.59" x2="627.59" y1="305.36" y2="297.36"/><line style="stroke:#181818;stroke-width:1;" x1="630.59" x2="630.59" y1="305.36" y2="297.36"/><line style="stroke:#181818;stroke-width:1;" x1="631.59" x2="623.59" y1="301.36" y2="301.36"/><line style="stroke:#181818;stroke-width:1;" x1="674.59" x2="682.59" y1="301.36" y2="295.36"/><line style="stroke:#181818;stroke-width:1;" x1="674.59" x2="682.59" y1="301.36" y2="307.36"/><line style="stroke:#181818;stroke-width:1;" x1="674.59" x2="682.59" y1="301.36" y2="301.36"/><ellipse cx="668.59" cy="301.36" fill="none" rx="4" ry="4" style="stroke:#181818;stroke-width:1;"/></g><!--link Cats to Sellers--><!--link Sellers to ProdData--><!--link ProdData to DataCats--><!--link ProdData to DataCats--><g class="link" data-entity-1="ent0009" data-entity-2="ent0010" data-link-type="crowfoot" data-source-line="143" id="lnk31"><path codeLine="143" d="M820.13,790.36 C839.41,790.36 833.95,790.36 853.91,790.36" fill="none" id="ProdData-DataCats-1" style="stroke:#181818;stroke-width:1;stroke-dasharray:7,7;"/><line style="stroke:#181818;stroke-width:1;" x1="816.13" x2="816.13" y1="794.36" y2="786.36"/><line style="stroke:#181818;stroke-width:1;" x1="819.13" x2="819.13" y1="794.36" y2="786.36"/><line style="stroke:#181818;stroke-width:1;" x1="820.13" x2="812.13" y1="790.36" y2="790.36"/><line style="stroke:#181818;stroke-width:1;" x1="863.91" x2="871.91" y1="790.36" y2="784.36"/><line style="stroke:#181818;stroke-width:1;" x1="863.91" x2="871.91" y1="790.36" y2="796.36"/><line style="stroke:#181818;stroke-width:1;" x1="863.91" x2="871.91" y1="790.36" y2="790.36"/><ellipse cx="857.91" cy="790.36" fill="none" rx="4" ry="4" style="stroke:#181818;stroke-width:1;"/></g><!--link Groups to Receipts--><!--link Groups to Receipts--><g class="link" data-entity-1="ent0004" data-entity-2="ent0011" data-link-type="crowfoot" data-source-line="145" id="lnk32"><path codeLine="145" d="M520.57,355.4 C520.57,440.12 520.57,557.16 520.57,654.27" fill="none" id="Groups-Receipts-1" style="stroke:#181818;stroke-width:1;stroke-dasharray:7,7;"/><line style="stroke:#181818;stroke-width:1;" x1="516.57" x2="524.57" y1="351.4" y2="351.4"/><line style="stroke:#181818;stroke-width:1;" x1="516.57" x2="524.57" y1="354.4" y2="354.4"/><line style="stroke:#181818;stroke-width:1;" x1="520.57" x2="520.57" y1="355.4" y2="347.4"/><line style="stroke:#181818;stroke-width:1;" x1="520.57" x2="526.57" y1="664.27" y2="672.27"/><line style="stroke:#181818;stroke-width:1;" x1="520.57" x2="514.57" y1="664.27" y2="672.27"/><line style="stroke:#181818;stroke-width:1;" x1="520.57" x2="520.57" y1="664.27" y2="672.27"/><ellipse cx="520.57" cy="658.27" fill="none" rx="4" ry="4" style="stroke:#181818;stroke-width:1;"/></g><!--link Receipts to ProdEntries--><!--link Receipts to ProdEntries--><g class="link" data-entity-1="ent0011" data-entity-2="ent0012" data-link-type="crowfoot" data-source-line="148" id="lnk35"><path codeLine="148" d="M478.61,886.12 C478.61,905.78 478.61,910.18 478.61,929.28" fill="none" id="Receipts-ProdEntries-1" style="stroke:#181818;stroke-width:1;stroke-dasharray:7,7;"/><line style="stroke:#181818;stroke-width:1;" x1="474.61" x2="482.61" y1="882.12" y2="882.12"/><line style="stroke:#181818;stroke-width:1;" x1="474.61" x2="482.61" y1="885.12" y2="885.12"/><line style="stroke:#181818;stroke-width:1;" x1="478.61" x2="478.61" y1="886.12" y2="878.12"/><line style="stroke:#181818;stroke-width:1;" x1="478.61" x2="484.61" y1="929.28" y2="937.28"/><line style="stroke:#181818;stroke-width:1;" x1="478.61" x2="472.61" y1="929.28" y2="937.28"/><line style="stroke:#181818;stroke-width:1;" x1="478.61" x2="478.61" y1="929.28" y2="937.28"/><line style="stroke:#181818;stroke-width:1;" x1="482.61" x2="474.61" y1="927.28" y2="927.28"/></g><!--link GrpMem to MemHist--><!--link GrpMem to MemHist--><g class="link" data-entity-1="ent0005" data-entity-2="ent0006" data-link-type="crowfoot" data-source-line="136" id="lnk26"><path codeLine="136" d="M189.18,355.56 C189.18,374.28 189.18,378.9 189.18,398.97" fill="none" id="GrpMem-MemHist-1" style="stroke:#181818;stroke-width:1;stroke-dasharray:7,7;"/><line style="stroke:#181818;stroke-width:1;" x1="185.18" x2="193.18" y1="351.56" y2="351.56"/><line style="stroke:#181818;stroke-width:1;" x1="185.18" x2="193.18" y1="354.56" y2="354.56"/><line style="stroke:#181818;stroke-width:1;" x1="189.18" x2="189.18" y1="355.56" y2="347.56"/><line style="stroke:#181818;stroke-width:1;" x1="189.18" x2="195.18" y1="398.97" y2="406.97"/><line style="stroke:#181818;stroke-width:1;" x1="189.18" x2="183.18" y1="398.97" y2="406.97"/><line style="stroke:#181818;stroke-width:1;" x1="189.18" x2="189.18" y1="398.97" y2="406.97"/><line style="stroke:#181818;stroke-width:1;" x1="193.18" x2="185.18" y1="396.97" y2="396.97"/></g><!--link Users to Groups--><g class="link" data-entity-1="ent0002" data-entity-2="ent0004" data-link-type="crowfoot" data-source-line="131" id="lnk22"><path codeLine="131" d="M368.68,131.36 C428.98,131.36 488.99,131.36 488.99,131.36 C488.99,131.36 488.99,161.53 488.99,198.8" fill="none" id="Users-Groups" style="stroke:#181818;stroke-width:1;stroke-dasharray:7,7;"/><line style="stroke:#181818;stroke-width:1;" x1="364.68" x2="364.68" y1="135.36" y2="127.36"/><line style="stroke:#181818;stroke-width:1;" x1="367.68" x2="367.68" y1="135.36" y2="127.36"/><line style="stroke:#181818;stroke-width:1;" x1="368.68" x2="360.68" y1="131.36" y2="131.36"/><line style="stroke:#181818;stroke-width:1;" x1="488.99" x2="494.99" y1="198.8" y2="206.8"/><line style="stroke:#181818;stroke-width:1;" x1="488.99" x2="482.99" y1="198.8" y2="206.8"/><line style="stroke:#181818;stroke-width:1;" x1="488.99" x2="488.99" y1="198.8" y2="206.8"/><line style="stroke:#181818;stroke-width:1;" x1="492.99" x2="484.99" y1="196.8" y2="196.8"/></g><!--link Users to GrpMem--><g class="link" data-entity-1="ent0002" data-entity-2="ent0005" data-link-type="crowfoot" data-source-line="132" id="lnk23"><path codeLine="132" d="M269.5,155.3 C269.5,174.55 269.5,179.43 269.5,198.69" fill="none" id="Users-GrpMem" style="stroke:#181818;stroke-width:1;stroke-dasharray:7,7;"/><line style="stroke:#181818;stroke-width:1;" x1="265.5" x2="273.5" y1="151.3" y2="151.3"/><line style="stroke:#181818;stroke-width:1;" x1="265.5" x2="273.5" y1="154.3" y2="154.3"/><line style="stroke:#181818;stroke-width:1;" x1="269.5" x2="269.5" y1="155.3" y2="147.3"/><line style="stroke:#181818;stroke-width:1;" x1="269.5" x2="275.5" y1="198.69" y2="206.69"/><line style="stroke:#181818;stroke-width:1;" x1="269.5" x2="263.5" y1="198.69" y2="206.69"/><line style="stroke:#181818;stroke-width:1;" x1="269.5" x2="269.5" y1="198.69" y2="206.69"/><line style="stroke:#181818;stroke-width:1;" x1="273.5" x2="265.5" y1="196.69" y2="196.69"/></g><!--link Roles to GrpMem--><g class="link" data-entity-1="ent0003" data-entity-2="ent0005" data-link-type="crowfoot" data-source-line="133" id="lnk24"><path codeLine="133" d="M412.46,65.36 C397.56,65.36 394,65.36 394,65.36 C394,65.36 394,242.36 394,242.36 C394,242.36 401.17,242.36 385.9,242.36" fill="none" id="Roles-GrpMem" style="stroke:#181818;stroke-width:1;stroke-dasharray:7,7;"/><line style="stroke:#181818;stroke-width:1;" x1="416.46" x2="416.46" y1="61.36" y2="69.36"/><line style="stroke:#181818;stroke-width:1;" x1="413.46" x2="413.46" y1="61.36" y2="69.36"/><line style="stroke:#181818;stroke-width:1;" x1="412.46" x2="420.46" y1="65.36" y2="65.36"/><line style="stroke:#181818;stroke-width:1;" x1="375.9" x2="367.9" y1="242.36" y2="248.36"/><line style="stroke:#181818;stroke-width:1;" x1="375.9" x2="367.9" y1="242.36" y2="236.36"/><line style="stroke:#181818;stroke-width:1;" x1="375.9" x2="367.9" y1="242.36" y2="242.36"/><ellipse cx="381.9" cy="242.36" fill="none" rx="4" ry="4" style="stroke:#181818;stroke-width:1;"/></g><!--link Groups to Sellers--><g class="link" data-entity-1="ent0004" data-entity-2="ent0008" data-link-type="crowfoot" data-source-line="139" id="lnk28"><path codeLine="139" d="M604.64,355.41 C604.64,424.09 604.64,510.36 604.64,510.36 C604.64,510.36 624.5,510.36 664.57,510.36" fill="none" id="Groups-Sellers" style="stroke:#181818;stroke-width:1;stroke-dasharray:7,7;"/><line style="stroke:#181818;stroke-width:1;" x1="600.64" x2="608.64" y1="351.41" y2="351.41"/><line style="stroke:#181818;stroke-width:1;" x1="600.64" x2="608.64" y1="354.41" y2="354.41"/><line style="stroke:#181818;stroke-width:1;" x1="604.64" x2="604.64" y1="355.41" y2="347.41"/><line style="stroke:#181818;stroke-width:1;" x1="674.57" x2="682.57" y1="510.36" y2="504.36"/><line style="stroke:#181818;stroke-width:1;" x1="674.57" x2="682.57" y1="510.36" y2="516.36"/><line style="stroke:#181818;stroke-width:1;" x1="674.57" x2="682.57" y1="510.36" y2="510.36"/><ellipse cx="668.57" cy="510.36" fill="none" rx="4" ry="4" style="stroke:#181818;stroke-width:1;"/></g><!--link Groups to ProdData--><g class="link" data-entity-1="ent0004" data-entity-2="ent0009" data-link-type="crowfoot" data-source-line="140" id="lnk29"><path codeLine="140" d="M585.86,355.45 C585.86,492.79 585.86,775.36 585.86,775.36 C585.86,775.36 585.88,775.36 608.68,775.36" fill="none" id="Groups-ProdData" style="stroke:#181818;stroke-width:1;stroke-dasharray:7,7;"/><line style="stroke:#181818;stroke-width:1;" x1="581.86" x2="589.86" y1="351.45" y2="351.45"/><line style="stroke:#181818;stroke-width:1;" x1="581.86" x2="589.86" y1="354.45" y2="354.45"/><line style="stroke:#181818;stroke-width:1;" x1="585.86" x2="585.86" y1="355.45" y2="347.45"/><line style="stroke:#181818;stroke-width:1;" x1="618.68" x2="626.68" y1="775.36" y2="769.36"/><line style="stroke:#181818;stroke-width:1;" x1="618.68" x2="626.68" y1="775.36" y2="781.36"/><line style="stroke:#181818;stroke-width:1;" x1="618.68" x2="626.68" y1="775.36" y2="775.36"/><ellipse cx="612.68" cy="775.36" fill="none" rx="4" ry="4" style="stroke:#181818;stroke-width:1;"/></g><!--link Cats to DataCats--><g class="link" data-entity-1="ent0007" data-entity-2="ent0010" data-link-type="crowfoot" data-source-line="142" id="lnk30"><path codeLine="142" d="M876.35,277.36 C932.96,277.36 986.5,277.36 986.5,277.36 C986.5,277.36 986.5,587.92 986.5,711.13" fill="none" id="Cats-DataCats" style="stroke:#181818;stroke-width:1;stroke-dasharray:7,7;"/><line style="stroke:#181818;stroke-width:1;" x1="872.35" x2="872.35" y1="281.36" y2="273.36"/><line style="stroke:#181818;stroke-width:1;" x1="875.35" x2="875.35" y1="281.36" y2="273.36"/><line style="stroke:#181818;stroke-width:1;" x1="876.35" x2="868.35" y1="277.36" y2="277.36"/><line style="stroke:#181818;stroke-width:1;" x1="986.5" x2="992.5" y1="721.13" y2="729.13"/><line style="stroke:#181818;stroke-width:1;" x1="986.5" x2="980.5" y1="721.13" y2="729.13"/><line style="stroke:#181818;stroke-width:1;" x1="986.5" x2="986.5" y1="721.13" y2="729.13"/><ellipse cx="986.5" cy="715.13" fill="none" rx="4" ry="4" style="stroke:#181818;stroke-width:1;"/></g><!--link GrpMem to Receipts--><g class="link" data-entity-1="ent0005" data-entity-2="ent0011" data-link-type="crowfoot" data-source-line="146" id="lnk33"><path codeLine="146" d="M340.67,355.4 C340.67,440.12 340.67,557.16 340.67,654.27" fill="none" id="GrpMem-Receipts" style="stroke:#181818;stroke-width:1;stroke-dasharray:7,7;"/><line style="stroke:#181818;stroke-width:1;" x1="336.67" x2="344.67" y1="351.4" y2="351.4"/><line style="stroke:#181818;stroke-width:1;" x1="336.67" x2="344.67" y1="354.4" y2="354.4"/><line style="stroke:#181818;stroke-width:1;" x1="340.67" x2="340.67" y1="355.4" y2="347.4"/><line style="stroke:#181818;stroke-width:1;" x1="340.67" x2="346.67" y1="664.27" y2="672.27"/><line style="stroke:#181818;stroke-width:1;" x1="340.67" x2="334.67" y1="664.27" y2="672.27"/><line style="stroke:#181818;stroke-width:1;" x1="340.67" x2="340.67" y1="664.27" y2="672.27"/><ellipse cx="340.67" cy="658.27" fill="none" rx="4" ry="4" style="stroke:#181818;stroke-width:1;"/></g><!--link Sellers to Receipts--><g class="link" data-entity-1="ent0008" data-entity-2="ent0011" data-link-type="crowfoot" data-source-line="147" id="lnk34"><path codeLine="147" d="M726.01,588.25 C726.01,638.55 726.01,689.36 726.01,689.36 C726.01,689.36 661.65,689.36 585.39,689.36" fill="none" id="Sellers-Receipts" style="stroke:#181818;stroke-width:1;stroke-dasharray:7,7;"/><line style="stroke:#181818;stroke-width:1;" x1="722.01" x2="730.01" y1="584.25" y2="584.25"/><line style="stroke:#181818;stroke-width:1;" x1="722.01" x2="730.01" y1="587.25" y2="587.25"/><line style="stroke:#181818;stroke-width:1;" x1="726.01" x2="726.01" y1="588.25" y2="580.25"/><line style="stroke:#181818;stroke-width:1;" x1="575.39" x2="567.39" y1="689.36" y2="695.36"/><line style="stroke:#181818;stroke-width:1;" x1="575.39" x2="567.39" y1="689.36" y2="683.36"/><line style="stroke:#181818;stroke-width:1;" x1="575.39" x2="567.39" y1="689.36" y2="689.36"/><ellipse cx="581.39" cy="689.36" fill="none" rx="4" ry="4" style="stroke:#181818;stroke-width:1;"/></g><!--link ProdData to ProdEntries--><g class="link" data-entity-1="ent0009" data-entity-2="ent0012" data-link-type="crowfoot" data-source-line="149" id="lnk36"><path codeLine="149" d="M719.5,853.5 C719.5,927.22 719.5,1024.36 719.5,1024.36 C719.5,1024.36 650.14,1024.36 573.18,1024.36" fill="none" id="ProdData-ProdEntries" style="stroke:#181818;stroke-width:1;stroke-dasharray:7,7;"/><line style="stroke:#181818;stroke-width:1;" x1="715.5" x2="723.5" y1="849.5" y2="849.5"/><line style="stroke:#181818;stroke-width:1;" x1="715.5" x2="723.5" y1="852.5" y2="852.5"/><line style="stroke:#181818;stroke-width:1;" x1="719.5" x2="719.5" y1="853.5" y2="845.5"/><line style="stroke:#181818;stroke-width:1;" x1="563.18" x2="555.18" y1="1024.36" y2="1030.36"/><line style="stroke:#181818;stroke-width:1;" x1="563.18" x2="555.18" y1="1024.36" y2="1018.36"/><line style="stroke:#181818;stroke-width:1;" x1="563.18" x2="555.18" y1="1024.36" y2="1024.36"/><ellipse cx="569.18" cy="1024.36" fill="none" rx="4" ry="4" style="stroke:#181818;stroke-width:1;"/></g><?plantuml-src lLPBRnCn4Bxlhx1wZ9Ig9mvHLIb9do3QGCi9SN3NqwnLhxso7TfLmt_7Rnnt8m8DvB1PVpCUptppy3QK0Agfh1bKwf7o3alS8aOvwBu39AHkH2PG3IRYYV8bUi1CvLkaM75I2yb1egCg4t11G467tXtbsfW_1h02hgdkqS5KTTUWloYGwW1XXTmRUgcG-Osk29gWrOeIT7oy-71ouj3nsFrPnMlSWj7GyAmTTjPYod9WWPLw4f9SOjNa-5m2ra1EpME2Y7bgse8tsv4eGPdeno-FFmi6tbVtjk6hyObYDk1jxcbcwy8Gs7bZ_dKtQwER9yDupivvr2WfkL8BGwZWc4tGlJ0EOruoWFwO0kVhHsZlOzOkf5r6vsrg1bCtSXkTY78DIrCr0y5PMWkT5DwqrlIxTIkFvRqmbVlsK2wfqaBsBY23sELlqh5RF2KTAPXvW_aIoApt6bx1IJm5CtWG4fBjJ39zq20t1PwPk2Mdnql2bbnmBRIftxmjl4DJlOMikS6MGj9G_sQfzi5GMRDpmOIyXETzTUmjC1OhDRp_2xTFGTMITfeA7c3qPjSNKf1LhOq6TkxRjLty7__twNvHEm5AYSWqj_N-A9ZejoeCHUsa-VY66aoGOOA7nLxwF10rw_qu6MpvaQ-_RH7S2OtPj3Mtgcj1g6cBMRZ9-jQ4C3JaRiLArd1dR-wyx6uaNL8pzyyfWopLUwl9CwvJDYqKrdkXCkHbQw9tg9Q5f3KK97vQOH_39lmtPFZlbF7NXX82_9lXkj5Z_qLGXTkm5FeRlWeNVIcrpL2vZaWIyz75nt5YLN5o5U8u4Qeq6ahBiTLUdUmDn1weKZCCd12I-oeqhn5koyZAUdruk7w9yHQOtL_vBoUBYOH5zpOrmu41J0TbkiP27bs08ckRQ2BBCntGH52Yi1GKPX9bcNSv75DLuedX44xER7bs9li9?></g></svg>