<?plantuml 1.2026.2beta3?><svg xmlns="http://www.w3.org/2000/svg" xmlns:xlink="http://www.w3.org/1999/xlink" contentStyleType="text/css" data-diagram-type="CLASS" height="1133px" preserveAspectRatio="none" style="width:1060px;height:1133px;background:#FFFFFF;" version="1.1" viewBox="0 0 1060 1133" width="1060px" zoomAndPan="magnify"><defs/><g><!--class Users--><g class="entity" data-qualified-name="Users" data-source-line="9" id="ent0002"><rect fill="#F1F1F1" height="140.0781" style="stroke:#181818;stroke-width:0.5;" width="181.8662" x="7" y="7"/><text fill="#000000" font-family="sans-serif" font-size="14" lengthAdjust="spacing" textLength="89.5371" x="53.1646" y="24.9951">AspNetUsers</text><line style="stroke:#181818;stroke-width:0.5;" x1="8" x2="187.8662" y1="33.2969" y2="33.2969"/><g data-visibility-modifier="IE_MANDATORY"><ellipse cx="18" cy="46.9453" fill="#000000" rx="3" ry="3" style="stroke:#000000;stroke-width:1;"/></g><text fill="#000000" font-family="sans-serif" font-size="14" lengthAdjust="spacing" textLength="96.3594" x="27" y="50.292">Id : uuid &#171;PK&#187;</text><line style="stroke:#181818;stroke-width:1;" x1="8" x2="187.8662" y1="57.5938" y2="57.5938"/><text fill="#000000" font-family="sans-serif" font-size="14" lengthAdjust="spacing" textLength="114.707" x="13" y="74.5889">UserName : text</text><text fill="#000000" font-family="sans-serif" font-size="14" lengthAdjust="spacing" textLength="80.3359" x="13" y="90.8857">Email : text</text><text fill="#000000" font-family="sans-serif" font-size="14" lengthAdjust="spacing" textLength="143.0352" x="13" y="107.1826">PasswordHash : text</text><text fill="#000000" font-family="sans-serif" font-size="14" lengthAdjust="spacing" textLength="161.54" x="13" y="123.4795">CreatedDate: datetime</text><text fill="#000000" font-family="sans-serif" font-size="14" lengthAdjust="spacing" textLength="169.8662" x="13" y="139.7764">UpdatedDate : datetime</text></g><!--class Roles--><g class="entity" data-qualified-name="Roles" data-source-line="19" id="ent0003"><rect fill="#F1F1F1" height="74.8906" style="stroke:#181818;stroke-width:0.5;" width="129.8584" x="249" y="39.6"/><text fill="#000000" font-family="sans-serif" font-size="14" lengthAdjust="spacing" textLength="38.0898" x="294.8843" y="57.5951">Roles</text><line style="stroke:#181818;stroke-width:0.5;" x1="250" x2="377.8584" y1="65.8969" y2="65.8969"/><g data-visibility-modifier="IE_MANDATORY"><ellipse cx="260" cy="79.5453" fill="#000000" rx="3" ry="3" style="stroke:#000000;stroke-width:1;"/></g><text fill="#000000" font-family="sans-serif" font-size="14" lengthAdjust="spacing" textLength="103.8584" x="269" y="82.892">Id : serial &#171;PK&#187;</text><line style="stroke:#181818;stroke-width:1;" x1="250" x2="377.8584" y1="90.1938" y2="90.1938"/><text fill="#000000" font-family="sans-serif" font-size="14" lengthAdjust="spacing" textLength="82.7969" x="255" y="107.1889">Name : text</text></g><!--class Groups--><g class="entity" data-qualified-name="Groups" data-source-line="25" id="ent0004"><rect fill="#F1F1F1" height="140.0781" style="stroke:#181818;stroke-width:0.5;" width="195.8662" x="351" y="215.23"/><text fill="#000000" font-family="sans-serif" font-size="14" lengthAdjust="spacing" textLength="50.2236" x="423.8213" y="233.2251">Groups</text><line style="stroke:#181818;stroke-width:0.5;" x1="352" x2="545.8662" y1="241.5269" y2="241.5269"/><g data-visibility-modifier="IE_MANDATORY"><ellipse cx="362" cy="255.1753" fill="#000000" rx="3" ry="3" style="stroke:#000000;stroke-width:1;"/></g><text fill="#000000" font-family="sans-serif" font-size="14" lengthAdjust="spacing" textLength="103.8584" x="371" y="258.522">Id : serial &#171;PK&#187;</text><line style="stroke:#181818;stroke-width:1;" x1="352" x2="545.8662" y1="265.8238" y2="265.8238"/><g data-visibility-modifier="IE_MANDATORY"><ellipse cx="362" cy="279.4722" fill="#000000" rx="3" ry="3" style="stroke:#000000;stroke-width:1;"/></g><text fill="#000000" font-family="sans-serif" font-size="14" lengthAdjust="spacing" textLength="141.6816" x="371" y="282.8189">OwnerId : uuid &#171;FK&#187;</text><text fill="#000000" font-family="sans-serif" font-size="14" lengthAdjust="spacing" textLength="82.7969" x="371" y="299.1157">Name : text</text><text fill="#000000" font-family="sans-serif" font-size="14" lengthAdjust="spacing" textLength="136.5752" x="371" y="315.4126">IsPersonal: boolean</text><text fill="#000000" font-family="sans-serif" font-size="14" lengthAdjust="spacing" textLength="165.9902" x="371" y="331.7095">CreatedDate : datetime</text><text fill="#000000" font-family="sans-serif" font-size="14" lengthAdjust="spacing" textLength="169.8662" x="371" y="348.0064">UpdatedDate : datetime</text></g><!--class GrpMem--><g class="entity" data-qualified-name="GrpMem" data-source-line="35" id="ent0005"><rect fill="#F1F1F1" height="140.0781" style="stroke:#181818;stroke-width:0.5;" width="195.8662" x="95" y="215.23"/><text fill="#000000" font-family="sans-serif" font-size="14" lengthAdjust="spacing" textLength="107.8096" x="139.0283" y="233.2251">GroupMembers</text><line style="stroke:#181818;stroke-width:0.5;" x1="96" x2="289.8662" y1="241.5269" y2="241.5269"/><g data-visibility-modifier="IE_MANDATORY"><ellipse cx="106" cy="255.1753" fill="#000000" rx="3" ry="3" style="stroke:#000000;stroke-width:1;"/></g><text fill="#000000" font-family="sans-serif" font-size="14" lengthAdjust="spacing" textLength="128.2695" x="115" y="258.522">UserId : uuid &#171;PK&#187;</text><g data-visibility-modifier="IE_MANDATORY"><ellipse cx="106" cy="271.4722" fill="#000000" rx="3" ry="3" style="stroke:#000000;stroke-width:1;"/></g><text fill="#000000" font-family="sans-serif" font-size="14" lengthAdjust="spacing" textLength="158.8877" x="115" y="274.8189">GroupId : integer &#171;PK&#187;</text><line style="stroke:#181818;stroke-width:1;" x1="96" x2="289.8662" y1="282.1206" y2="282.1206"/><g data-visibility-modifier="IE_MANDATORY"><ellipse cx="106" cy="295.7691" fill="#000000" rx="3" ry="3" style="stroke:#000000;stroke-width:1;"/></g><text fill="#000000" font-family="sans-serif" font-size="14" lengthAdjust="spacing" textLength="146.3643" x="115" y="299.1157">RoleId : integer &#171;FK&#187;</text><text fill="#000000" font-family="sans-serif" font-size="14" lengthAdjust="spacing" textLength="113.1416" x="115" y="315.4126">Active : boolean</text><text fill="#000000" font-family="sans-serif" font-size="14" lengthAdjust="spacing" textLength="153.2344" x="115" y="331.7095">JoinedDate : datetime</text><text fill="#000000" font-family="sans-serif" font-size="14" lengthAdjust="spacing" textLength="169.8662" x="115" y="348.0064">UpdatedDate : datetime</text></g><!--class MemHist--><g class="entity" data-qualified-name="MemHist" data-source-line="45" id="ent0006"><rect fill="#F1F1F1" height="205.2656" style="stroke:#181818;stroke-width:0.5;" width="190.9922" x="94.44" y="423.46"/><text fill="#000000" font-family="sans-serif" font-size="14" lengthAdjust="spacing" textLength="150.3223" x="114.775" y="441.4551">GroupMemberHistory</text><line style="stroke:#181818;stroke-width:0.5;" x1="95.44" x2="284.4322" y1="449.7569" y2="449.7569"/><g data-visibility-modifier="IE_MANDATORY"><ellipse cx="105.44" cy="463.4053" fill="#000000" rx="3" ry="3" style="stroke:#000000;stroke-width:1;"/></g><text fill="#000000" font-family="sans-serif" font-size="14" lengthAdjust="spacing" textLength="103.8584" x="114.44" y="466.752">Id : serial &#171;PK&#187;</text><g data-visibility-modifier="IE_MANDATORY"><ellipse cx="105.44" cy="479.7022" fill="#000000" rx="3" ry="3" style="stroke:#000000;stroke-width:1;"/></g><text fill="#000000" font-family="sans-serif" font-size="14" lengthAdjust="spacing" textLength="158.8877" x="114.44" y="483.0489">GroupId : integer &#171;PK&#187;</text><line style="stroke:#181818;stroke-width:1;" x1="95.44" x2="284.4322" y1="490.3506" y2="490.3506"/><g data-visibility-modifier="IE_MANDATORY"><ellipse cx="105.44" cy="503.9991" fill="#000000" rx="3" ry="3" style="stroke:#000000;stroke-width:1;"/></g><text fill="#000000" font-family="sans-serif" font-size="14" lengthAdjust="spacing" textLength="127.8799" x="114.44" y="507.3457">UserId : uuid &#171;FK&#187;</text><text fill="#000000" font-family="sans-serif" font-size="14" lengthAdjust="spacing" textLength="164.9922" x="114.44" y="523.6426">ChangedByUserId: uuid</text><text fill="#000000" font-family="sans-serif" font-size="14" lengthAdjust="spacing" textLength="149.1807" x="114.44" y="539.9395">RoleIdBefore: integer</text><text fill="#000000" font-family="sans-serif" font-size="14" lengthAdjust="spacing" textLength="137.4639" x="114.44" y="556.2364">RoleIdAfter: integer</text><text fill="#000000" font-family="sans-serif" font-size="14" lengthAdjust="spacing" textLength="154.7725" x="114.44" y="572.5332">ActiveBefore: boolean</text><text fill="#000000" font-family="sans-serif" font-size="14" lengthAdjust="spacing" textLength="143.0557" x="114.44" y="588.8301">ActiveAfter: boolean</text><text fill="#000000" font-family="sans-serif" font-size="14" lengthAdjust="spacing" textLength="81.9287" x="114.44" y="605.127">Notes : text</text><text fill="#000000" font-family="sans-serif" font-size="14" lengthAdjust="spacing" textLength="154.3691" x="114.44" y="621.4239">ChangedAt : datetime</text></g><!--class Cats--><g class="entity" data-qualified-name="Cats" data-source-line="59" id="ent0007"><rect fill="#F1F1F1" height="156.375" style="stroke:#181818;stroke-width:0.5;" width="236.4922" x="614.69" y="207.08"/><text fill="#000000" font-family="sans-serif" font-size="14" lengthAdjust="spacing" textLength="75.4619" x="695.2051" y="225.0751">Categories</text><line style="stroke:#181818;stroke-width:0.5;" x1="615.69" x2="850.1822" y1="233.3769" y2="233.3769"/><g data-visibility-modifier="IE_MANDATORY"><ellipse cx="625.69" cy="247.0253" fill="#000000" rx="3" ry="3" style="stroke:#000000;stroke-width:1;"/></g><text fill="#000000" font-family="sans-serif" font-size="14" lengthAdjust="spacing" textLength="103.8584" x="634.69" y="250.372">Id : serial &#171;PK&#187;</text><line style="stroke:#181818;stroke-width:1;" x1="615.69" x2="850.1822" y1="257.6738" y2="257.6738"/><text fill="#000000" font-family="sans-serif" font-size="14" lengthAdjust="spacing" textLength="224.4922" x="620.69" y="274.6689">GroupId : integer &#171;FK, Nullable&#187;</text><text fill="#000000" font-family="sans-serif" font-size="14" lengthAdjust="spacing" textLength="82.7969" x="620.69" y="290.9657">Name : text</text><text fill="#000000" font-family="sans-serif" font-size="14" lengthAdjust="spacing" textLength="105.4717" x="620.69" y="307.2626">ColorHex : text</text><text fill="#000000" font-family="sans-serif" font-size="14" lengthAdjust="spacing" textLength="133.2188" x="620.69" y="323.5595">IsSystem : boolean</text><text fill="#000000" font-family="sans-serif" font-size="14" lengthAdjust="spacing" textLength="161.54" x="620.69" y="339.8564">CreatedDate: datetime</text><text fill="#000000" font-family="sans-serif" font-size="14" lengthAdjust="spacing" textLength="169.8662" x="620.69" y="356.1532">UpdatedDate : datetime</text></g><!--class Sellers--><g class="entity" data-qualified-name="Sellers" data-source-line="70" id="ent0008"><rect fill="#F1F1F1" height="140.0781" style="stroke:#181818;stroke-width:0.5;" width="184.8877" x="648.49" y="456.05"/><text fill="#000000" font-family="sans-serif" font-size="14" lengthAdjust="spacing" textLength="46.9424" x="717.4627" y="474.0451">Sellers</text><line style="stroke:#181818;stroke-width:0.5;" x1="649.49" x2="832.3777" y1="482.3469" y2="482.3469"/><g data-visibility-modifier="IE_MANDATORY"><ellipse cx="659.49" cy="495.9953" fill="#000000" rx="3" ry="3" style="stroke:#000000;stroke-width:1;"/></g><text fill="#000000" font-family="sans-serif" font-size="14" lengthAdjust="spacing" textLength="103.8584" x="668.49" y="499.342">Id : serial &#171;PK&#187;</text><g data-visibility-modifier="IE_MANDATORY"><ellipse cx="659.49" cy="512.2922" fill="#000000" rx="3" ry="3" style="stroke:#000000;stroke-width:1;"/></g><text fill="#000000" font-family="sans-serif" font-size="14" lengthAdjust="spacing" textLength="158.8877" x="668.49" y="515.6389">GroupId : integer &#171;PK&#187;</text><line style="stroke:#181818;stroke-width:1;" x1="649.49" x2="832.3777" y1="522.9406" y2="522.9406"/><text fill="#000000" font-family="sans-serif" font-size="14" lengthAdjust="spacing" textLength="82.7969" x="654.49" y="539.9357">Name : text</text><text fill="#000000" font-family="sans-serif" font-size="14" lengthAdjust="spacing" textLength="121.2285" x="654.49" y="556.2326">Description : text</text><text fill="#000000" font-family="sans-serif" font-size="14" lengthAdjust="spacing" textLength="161.54" x="654.49" y="572.5295">CreatedDate: datetime</text><text fill="#000000" font-family="sans-serif" font-size="14" lengthAdjust="spacing" textLength="169.8662" x="654.49" y="588.8264">UpdatedDate : datetime</text></g><!--class ProdData--><g class="entity" data-qualified-name="ProdData" data-source-line="80" id="ent0009"><rect fill="#F1F1F1" height="140.0781" style="stroke:#181818;stroke-width:0.5;" width="184.8877" x="579.49" y="721.32"/><text fill="#000000" font-family="sans-serif" font-size="14" lengthAdjust="spacing" textLength="87.1377" x="628.365" y="739.3151">ProductData</text><line style="stroke:#181818;stroke-width:0.5;" x1="580.49" x2="763.3777" y1="747.6169" y2="747.6169"/><g data-visibility-modifier="IE_MANDATORY"><ellipse cx="590.49" cy="761.2653" fill="#000000" rx="3" ry="3" style="stroke:#000000;stroke-width:1;"/></g><text fill="#000000" font-family="sans-serif" font-size="14" lengthAdjust="spacing" textLength="103.8584" x="599.49" y="764.612">Id : serial &#171;PK&#187;</text><g data-visibility-modifier="IE_MANDATORY"><ellipse cx="590.49" cy="777.5622" fill="#000000" rx="3" ry="3" style="stroke:#000000;stroke-width:1;"/></g><text fill="#000000" font-family="sans-serif" font-size="14" lengthAdjust="spacing" textLength="158.8877" x="599.49" y="780.9089">GroupId : integer &#171;PK&#187;</text><line style="stroke:#181818;stroke-width:1;" x1="580.49" x2="763.3777" y1="788.2106" y2="788.2106"/><text fill="#000000" font-family="sans-serif" font-size="14" lengthAdjust="spacing" textLength="82.7969" x="585.49" y="805.2057">Name : text</text><text fill="#000000" font-family="sans-serif" font-size="14" lengthAdjust="spacing" textLength="121.2285" x="585.49" y="821.5026">Description : text</text><text fill="#000000" font-family="sans-serif" font-size="14" lengthAdjust="spacing" textLength="161.54" x="585.49" y="837.7995">CreatedDate: datetime</text><text fill="#000000" font-family="sans-serif" font-size="14" lengthAdjust="spacing" textLength="169.8662" x="585.49" y="854.0964">UpdatedDate : datetime</text></g><!--class DataCats--><g class="entity" data-qualified-name="DataCats" data-source-line="90" id="ent0010"><rect fill="#F1F1F1" height="91.1875" style="stroke:#181818;stroke-width:0.5;" width="228.7061" x="824.58" y="745.76"/><text fill="#000000" font-family="sans-serif" font-size="14" lengthAdjust="spacing" textLength="162.5996" x="857.6332" y="763.7551">ProductDataCategories</text><line style="stroke:#181818;stroke-width:0.5;" x1="825.58" x2="1052.2861" y1="772.0569" y2="772.0569"/><g data-visibility-modifier="IE_MANDATORY"><ellipse cx="835.58" cy="785.7053" fill="#000000" rx="3" ry="3" style="stroke:#000000;stroke-width:1;"/></g><text fill="#000000" font-family="sans-serif" font-size="14" lengthAdjust="spacing" textLength="202.7061" x="844.58" y="789.052">ProductDataId : integer &#171;FK&#187;</text><g data-visibility-modifier="IE_MANDATORY"><ellipse cx="835.58" cy="802.0022" fill="#000000" rx="3" ry="3" style="stroke:#000000;stroke-width:1;"/></g><text fill="#000000" font-family="sans-serif" font-size="14" lengthAdjust="spacing" textLength="179.5186" x="844.58" y="805.3489">CategoryId : integer &#171;FK&#187;</text><g data-visibility-modifier="IE_MANDATORY"><ellipse cx="835.58" cy="818.2991" fill="#000000" rx="3" ry="3" style="stroke:#000000;stroke-width:1;"/></g><text fill="#000000" font-family="sans-serif" font-size="14" lengthAdjust="spacing" textLength="158.498" x="844.58" y="821.6457">GroupId : integer &#171;FK&#187;</text><line style="stroke:#181818;stroke-width:0.5;" x1="825.58" x2="1052.2861" y1="828.9475" y2="828.9475"/></g><!--class Receipts--><g class="entity" data-qualified-name="Receipts" data-source-line="96" id="ent0011"><rect fill="#F1F1F1" height="205.2656" style="stroke:#181818;stroke-width:0.5;" width="227.4824" x="292.19" y="688.72"/><text fill="#000000" font-family="sans-serif" font-size="14" lengthAdjust="spacing" textLength="60.2109" x="375.8257" y="706.7151">Receipts</text><line style="stroke:#181818;stroke-width:0.5;" x1="293.19" x2="518.6724" y1="715.0169" y2="715.0169"/><g data-visibility-modifier="IE_MANDATORY"><ellipse cx="303.19" cy="728.6653" fill="#000000" rx="3" ry="3" style="stroke:#000000;stroke-width:1;"/></g><text fill="#000000" font-family="sans-serif" font-size="14" lengthAdjust="spacing" textLength="103.8584" x="312.19" y="732.012">Id : serial &#171;PK&#187;</text><g data-visibility-modifier="IE_MANDATORY"><ellipse cx="303.19" cy="744.9622" fill="#000000" rx="3" ry="3" style="stroke:#000000;stroke-width:1;"/></g><text fill="#000000" font-family="sans-serif" font-size="14" lengthAdjust="spacing" textLength="158.8877" x="312.19" y="748.3089">GroupId : integer &#171;PK&#187;</text><line style="stroke:#181818;stroke-width:1;" x1="293.19" x2="518.6724" y1="755.6106" y2="755.6106"/><g data-visibility-modifier="IE_MANDATORY"><ellipse cx="303.19" cy="769.2591" fill="#000000" rx="3" ry="3" style="stroke:#000000;stroke-width:1;"/></g><text fill="#000000" font-family="sans-serif" font-size="14" lengthAdjust="spacing" textLength="201.4824" x="312.19" y="772.6057">CreatedByUserId : uuid &#171;FK&#187;</text><g data-visibility-modifier="IE_MANDATORY"><ellipse cx="303.19" cy="785.5559" fill="#000000" rx="3" ry="3" style="stroke:#000000;stroke-width:1;"/></g><text fill="#000000" font-family="sans-serif" font-size="14" lengthAdjust="spacing" textLength="155.2168" x="312.19" y="788.9026">SellerId : integer &#171;FK&#187;</text><text fill="#000000" font-family="sans-serif" font-size="14" lengthAdjust="spacing" textLength="158.9014" x="312.19" y="805.1995">TotalAmount : decimal</text><text fill="#000000" font-family="sans-serif" font-size="14" lengthAdjust="spacing" textLength="172.1973" x="312.19" y="821.4964">PaymentDate : datetime</text><text fill="#000000" font-family="sans-serif" font-size="14" lengthAdjust="spacing" textLength="124.2227" x="312.19" y="837.7932">SourceType : text</text><text fill="#000000" font-family="sans-serif" font-size="14" lengthAdjust="spacing" textLength="162.0254" x="312.19" y="854.0901">OriginalFileName : text</text><text fill="#000000" font-family="sans-serif" font-size="14" lengthAdjust="spacing" textLength="161.54" x="312.19" y="870.387">CreatedDate: datetime</text><text fill="#000000" font-family="sans-serif" font-size="14" lengthAdjust="spacing" textLength="169.8662" x="312.19" y="886.6839">UpdatedDate : datetime</text></g><!--class ProdEntries--><g class="entity" data-qualified-name="ProdEntries" data-source-line="110" id="ent0012"><rect fill="#F1F1F1" height="172.6719" style="stroke:#181818;stroke-width:0.5;" width="228.7061" x="291.58" y="953.99"/><text fill="#000000" font-family="sans-serif" font-size="14" lengthAdjust="spacing" textLength="102.4707" x="354.6977" y="971.9851">ProductEntries</text><line style="stroke:#181818;stroke-width:0.5;" x1="292.58" x2="519.2861" y1="980.2869" y2="980.2869"/><g data-visibility-modifier="IE_MANDATORY"><ellipse cx="302.58" cy="993.9353" fill="#000000" rx="3" ry="3" style="stroke:#000000;stroke-width:1;"/></g><text fill="#000000" font-family="sans-serif" font-size="14" lengthAdjust="spacing" textLength="103.8584" x="311.58" y="997.282">Id : serial &#171;PK&#187;</text><g data-visibility-modifier="IE_MANDATORY"><ellipse cx="302.58" cy="1010.2322" fill="#000000" rx="3" ry="3" style="stroke:#000000;stroke-width:1;"/></g><text fill="#000000" font-family="sans-serif" font-size="14" lengthAdjust="spacing" textLength="158.8877" x="311.58" y="1013.5789">GroupId : integer &#171;PK&#187;</text><line style="stroke:#181818;stroke-width:1;" x1="292.58" x2="519.2861" y1="1020.8806" y2="1020.8806"/><g data-visibility-modifier="IE_MANDATORY"><ellipse cx="302.58" cy="1034.5291" fill="#000000" rx="3" ry="3" style="stroke:#000000;stroke-width:1;"/></g><text fill="#000000" font-family="sans-serif" font-size="14" lengthAdjust="spacing" textLength="168.4854" x="311.58" y="1037.8757">ReceiptId : integer &#171;FK&#187;</text><g data-visibility-modifier="IE_MANDATORY"><ellipse cx="302.58" cy="1050.8259" fill="#000000" rx="3" ry="3" style="stroke:#000000;stroke-width:1;"/></g><text fill="#000000" font-family="sans-serif" font-size="14" lengthAdjust="spacing" textLength="202.7061" x="311.58" y="1054.1726">ProductDataId : integer &#171;FK&#187;</text><text fill="#000000" font-family="sans-serif" font-size="14" lengthAdjust="spacing" textLength="103.209" x="311.58" y="1070.4695">Price : decimal</text><text fill="#000000" font-family="sans-serif" font-size="14" lengthAdjust="spacing" textLength="129.3086" x="311.58" y="1086.7664">Quantity : decimal</text><text fill="#000000" font-family="sans-serif" font-size="14" lengthAdjust="spacing" textLength="161.54" x="311.58" y="1103.0632">CreatedDate: datetime</text><text fill="#000000" font-family="sans-serif" font-size="14" lengthAdjust="spacing" textLength="169.8662" x="311.58" y="1119.3601">UpdatedDate : datetime</text></g><!--link Users to Roles--><!--link GrpMem to Groups--><!--link Groups to GrpMem--><g class="link" data-entity-1="ent0004" data-entity-2="ent0005" data-link-type="crowfoot" data-source-line="136" id="lnk25"><path codeLine="136" d="M342.69,308.66 C323.23,308.66 318.8,308.66 299.34,308.66" fill="none" id="Groups-GrpMem" style="stroke:#181818;stroke-width:1;stroke-dasharray:7,7;"/><line style="stroke:#181818;stroke-width:1;" x1="346.69" x2="346.69" y1="304.66" y2="312.66"/><line style="stroke:#181818;stroke-width:1;" x1="343.69" x2="343.69" y1="304.66" y2="312.66"/><line style="stroke:#181818;stroke-width:1;" x1="342.69" x2="350.69" y1="308.66" y2="308.66"/><line style="stroke:#181818;stroke-width:1;" x1="299.34" x2="291.34" y1="308.66" y2="314.66"/><line style="stroke:#181818;stroke-width:1;" x1="299.34" x2="291.34" y1="308.66" y2="302.66"/><line style="stroke:#181818;stroke-width:1;" x1="299.34" x2="291.34" y1="308.66" y2="308.66"/><line style="stroke:#181818;stroke-width:1;" x1="301.34" x2="301.34" y1="312.66" y2="304.66"/></g><!--link Groups to Cats--><!--link Groups to Cats--><g class="link" data-entity-1="ent0004" data-entity-2="ent0007" data-link-type="crowfoot" data-source-line="139" id="lnk27"><path codeLine="139" d="M562.07,308.66 C583.71,308.66 573.86,308.66 596.22,308.66" fill="none" id="Groups-Cats-1" style="stroke:#181818;stroke-width:1;stroke-dasharray:7,7;"/><line style="stroke:#181818;stroke-width:1;" x1="558.07" x2="547.07" y1="308.66" y2="308.66"/><ellipse cx="558.07" cy="308.66" fill="none" rx="4" ry="4" style="stroke:#181818;stroke-width:1;"/><line style="stroke:#181818;stroke-width:1;" x1="551.07" x2="551.07" y1="312.66" y2="304.66"/><line style="stroke:#181818;stroke-width:1;" x1="606.22" x2="614.22" y1="308.66" y2="302.66"/><line style="stroke:#181818;stroke-width:1;" x1="606.22" x2="614.22" y1="308.66" y2="314.66"/><line style="stroke:#181818;stroke-width:1;" x1="606.22" x2="614.22" y1="308.66" y2="308.66"/><ellipse cx="600.22" cy="308.66" fill="none" rx="4" ry="4" style="stroke:#181818;stroke-width:1;"/></g><!--link Cats to Sellers--><!--link Sellers to ProdData--><!--link ProdData to DataCats--><!--link ProdData to DataCats--><g class="link" data-entity-1="ent0009" data-entity-2="ent0010" data-link-type="crowfoot" data-source-line="144" id="lnk31"><path codeLine="144" d="M772.57,806.66 C791.85,806.66 786.38,806.66 806.35,806.66" fill="none" id="ProdData-DataCats-1" style="stroke:#181818;stroke-width:1;stroke-dasharray:7,7;"/><line style="stroke:#181818;stroke-width:1;" x1="768.57" x2="768.57" y1="810.66" y2="802.66"/><line style="stroke:#181818;stroke-width:1;" x1="771.57" x2="771.57" y1="810.66" y2="802.66"/><line style="stroke:#181818;stroke-width:1;" x1="772.57" x2="764.57" y1="806.66" y2="806.66"/><line style="stroke:#181818;stroke-width:1;" x1="816.35" x2="824.35" y1="806.66" y2="800.66"/><line style="stroke:#181818;stroke-width:1;" x1="816.35" x2="824.35" y1="806.66" y2="812.66"/><line style="stroke:#181818;stroke-width:1;" x1="816.35" x2="824.35" y1="806.66" y2="806.66"/><ellipse cx="810.35" cy="806.66" fill="none" rx="4" ry="4" style="stroke:#181818;stroke-width:1;"/></g><!--link Groups to Receipts--><!--link Groups to Receipts--><g class="link" data-entity-1="ent0004" data-entity-2="ent0011" data-link-type="crowfoot" data-source-line="146" id="lnk32"><path codeLine="146" d="M463.45,363.64 C463.45,450.01 463.45,571.17 463.45,670.29" fill="none" id="Groups-Receipts-1" style="stroke:#181818;stroke-width:1;stroke-dasharray:7,7;"/><line style="stroke:#181818;stroke-width:1;" x1="459.45" x2="467.45" y1="359.64" y2="359.64"/><line style="stroke:#181818;stroke-width:1;" x1="459.45" x2="467.45" y1="362.64" y2="362.64"/><line style="stroke:#181818;stroke-width:1;" x1="463.45" x2="463.45" y1="363.64" y2="355.64"/><line style="stroke:#181818;stroke-width:1;" x1="463.45" x2="469.45" y1="680.29" y2="688.29"/><line style="stroke:#181818;stroke-width:1;" x1="463.45" x2="457.45" y1="680.29" y2="688.29"/><line style="stroke:#181818;stroke-width:1;" x1="463.45" x2="463.45" y1="680.29" y2="688.29"/><ellipse cx="463.45" cy="674.29" fill="none" rx="4" ry="4" style="stroke:#181818;stroke-width:1;"/></g><!--link Receipts to ProdEntries--><!--link Receipts to ProdEntries--><g class="link" data-entity-1="ent0011" data-entity-2="ent0012" data-link-type="crowfoot" data-source-line="149" id="lnk35"><path codeLine="149" d="M443.85,902.42 C443.85,922.08 443.85,926.48 443.85,945.58" fill="none" id="Receipts-ProdEntries-1" style="stroke:#181818;stroke-width:1;stroke-dasharray:7,7;"/><line style="stroke:#181818;stroke-width:1;" x1="439.85" x2="447.85" y1="898.42" y2="898.42"/><line style="stroke:#181818;stroke-width:1;" x1="439.85" x2="447.85" y1="901.42" y2="901.42"/><line style="stroke:#181818;stroke-width:1;" x1="443.85" x2="443.85" y1="902.42" y2="894.42"/><line style="stroke:#181818;stroke-width:1;" x1="443.85" x2="449.85" y1="945.58" y2="953.58"/><line style="stroke:#181818;stroke-width:1;" x1="443.85" x2="437.85" y1="945.58" y2="953.58"/><line style="stroke:#181818;stroke-width:1;" x1="443.85" x2="443.85" y1="945.58" y2="953.58"/><line style="stroke:#181818;stroke-width:1;" x1="447.85" x2="439.85" y1="943.58" y2="943.58"/></g><!--link GrpMem to MemHist--><!--link GrpMem to MemHist--><g class="link" data-entity-1="ent0005" data-entity-2="ent0006" data-link-type="crowfoot" data-source-line="137" id="lnk26"><path codeLine="137" d="M221.95,363.57 C221.95,384.67 221.95,392.28 221.95,415.03" fill="none" id="GrpMem-MemHist-1" style="stroke:#181818;stroke-width:1;stroke-dasharray:7,7;"/><line style="stroke:#181818;stroke-width:1;" x1="217.95" x2="225.95" y1="359.57" y2="359.57"/><line style="stroke:#181818;stroke-width:1;" x1="217.95" x2="225.95" y1="362.57" y2="362.57"/><line style="stroke:#181818;stroke-width:1;" x1="221.95" x2="221.95" y1="363.57" y2="355.57"/><line style="stroke:#181818;stroke-width:1;" x1="221.95" x2="227.95" y1="415.03" y2="423.03"/><line style="stroke:#181818;stroke-width:1;" x1="221.95" x2="215.95" y1="415.03" y2="423.03"/><line style="stroke:#181818;stroke-width:1;" x1="221.95" x2="221.95" y1="415.03" y2="423.03"/><line style="stroke:#181818;stroke-width:1;" x1="225.95" x2="217.95" y1="413.03" y2="413.03"/></g><!--link Users to Groups--><g class="link" data-entity-1="ent0002" data-entity-2="ent0004" data-link-type="crowfoot" data-source-line="132" id="lnk22"><path codeLine="132" d="M197.07,125.66 C274.42,125.66 364.93,125.66 364.93,125.66 C364.93,125.66 364.93,164.04 364.93,206.8" fill="none" id="Users-Groups" style="stroke:#181818;stroke-width:1;stroke-dasharray:7,7;"/><line style="stroke:#181818;stroke-width:1;" x1="193.07" x2="193.07" y1="129.66" y2="121.66"/><line style="stroke:#181818;stroke-width:1;" x1="196.07" x2="196.07" y1="129.66" y2="121.66"/><line style="stroke:#181818;stroke-width:1;" x1="197.07" x2="189.07" y1="125.66" y2="125.66"/><line style="stroke:#181818;stroke-width:1;" x1="364.93" x2="370.93" y1="206.8" y2="214.8"/><line style="stroke:#181818;stroke-width:1;" x1="364.93" x2="358.93" y1="206.8" y2="214.8"/><line style="stroke:#181818;stroke-width:1;" x1="364.93" x2="364.93" y1="206.8" y2="214.8"/><line style="stroke:#181818;stroke-width:1;" x1="368.93" x2="360.93" y1="204.8" y2="204.8"/></g><!--link Users to GrpMem--><g class="link" data-entity-1="ent0002" data-entity-2="ent0005" data-link-type="crowfoot" data-source-line="133" id="lnk23"><path codeLine="133" d="M141.93,155.54 C141.93,177.25 141.93,185.14 141.93,206.85" fill="none" id="Users-GrpMem" style="stroke:#181818;stroke-width:1;stroke-dasharray:7,7;"/><line style="stroke:#181818;stroke-width:1;" x1="137.93" x2="145.93" y1="151.54" y2="151.54"/><line style="stroke:#181818;stroke-width:1;" x1="137.93" x2="145.93" y1="154.54" y2="154.54"/><line style="stroke:#181818;stroke-width:1;" x1="141.93" x2="141.93" y1="155.54" y2="147.54"/><line style="stroke:#181818;stroke-width:1;" x1="141.93" x2="147.93" y1="206.85" y2="214.85"/><line style="stroke:#181818;stroke-width:1;" x1="141.93" x2="135.93" y1="206.85" y2="214.85"/><line style="stroke:#181818;stroke-width:1;" x1="141.93" x2="141.93" y1="206.85" y2="214.85"/><line style="stroke:#181818;stroke-width:1;" x1="145.93" x2="137.93" y1="204.85" y2="204.85"/></g><!--link Roles to GrpMem--><g class="link" data-entity-1="ent0003" data-entity-2="ent0005" data-link-type="crowfoot" data-source-line="134" id="lnk24"><path codeLine="134" d="M269.94,122.75 C269.94,150.64 269.94,163.45 269.94,197" fill="none" id="Roles-GrpMem" style="stroke:#181818;stroke-width:1;stroke-dasharray:7,7;"/><line style="stroke:#181818;stroke-width:1;" x1="265.94" x2="273.94" y1="118.75" y2="118.75"/><line style="stroke:#181818;stroke-width:1;" x1="265.94" x2="273.94" y1="121.75" y2="121.75"/><line style="stroke:#181818;stroke-width:1;" x1="269.94" x2="269.94" y1="122.75" y2="114.75"/><line style="stroke:#181818;stroke-width:1;" x1="269.94" x2="275.94" y1="207" y2="215"/><line style="stroke:#181818;stroke-width:1;" x1="269.94" x2="263.94" y1="207" y2="215"/><line style="stroke:#181818;stroke-width:1;" x1="269.94" x2="269.94" y1="207" y2="215"/><ellipse cx="269.94" cy="201" fill="none" rx="4" ry="4" style="stroke:#181818;stroke-width:1;"/></g><!--link Groups to Sellers--><g class="link" data-entity-1="ent0004" data-entity-2="ent0008" data-link-type="crowfoot" data-source-line="140" id="lnk28"><path codeLine="140" d="M538.01,363.74 C538.01,434.99 538.01,526.66 538.01,526.66 C538.01,526.66 576.65,526.66 630.08,526.66" fill="none" id="Groups-Sellers" style="stroke:#181818;stroke-width:1;stroke-dasharray:7,7;"/><line style="stroke:#181818;stroke-width:1;" x1="534.01" x2="542.01" y1="359.74" y2="359.74"/><line style="stroke:#181818;stroke-width:1;" x1="534.01" x2="542.01" y1="362.74" y2="362.74"/><line style="stroke:#181818;stroke-width:1;" x1="538.01" x2="538.01" y1="363.74" y2="355.74"/><line style="stroke:#181818;stroke-width:1;" x1="640.08" x2="648.08" y1="526.66" y2="520.66"/><line style="stroke:#181818;stroke-width:1;" x1="640.08" x2="648.08" y1="526.66" y2="532.66"/><line style="stroke:#181818;stroke-width:1;" x1="640.08" x2="648.08" y1="526.66" y2="526.66"/><ellipse cx="634.08" cy="526.66" fill="none" rx="4" ry="4" style="stroke:#181818;stroke-width:1;"/></g><!--link Groups to ProdData--><g class="link" data-entity-1="ent0004" data-entity-2="ent0009" data-link-type="crowfoot" data-source-line="141" id="lnk29"><path codeLine="141" d="M529.15,363.68 C529.15,502.82 529.15,791.66 529.15,791.66 C529.15,791.66 533.81,791.66 561.09,791.66" fill="none" id="Groups-ProdData" style="stroke:#181818;stroke-width:1;stroke-dasharray:7,7;"/><line style="stroke:#181818;stroke-width:1;" x1="525.15" x2="533.15" y1="359.68" y2="359.68"/><line style="stroke:#181818;stroke-width:1;" x1="525.15" x2="533.15" y1="362.68" y2="362.68"/><line style="stroke:#181818;stroke-width:1;" x1="529.15" x2="529.15" y1="363.68" y2="355.68"/><line style="stroke:#181818;stroke-width:1;" x1="571.09" x2="579.09" y1="791.66" y2="785.66"/><line style="stroke:#181818;stroke-width:1;" x1="571.09" x2="579.09" y1="791.66" y2="797.66"/><line style="stroke:#181818;stroke-width:1;" x1="571.09" x2="579.09" y1="791.66" y2="791.66"/><ellipse cx="565.09" cy="791.66" fill="none" rx="4" ry="4" style="stroke:#181818;stroke-width:1;"/></g><!--link Cats to DataCats--><g class="link" data-entity-1="ent0007" data-entity-2="ent0010" data-link-type="crowfoot" data-source-line="143" id="lnk30"><path codeLine="143" d="M842.28,371.79 C842.28,478.82 842.28,641.07 842.28,727.55" fill="none" id="Cats-DataCats" style="stroke:#181818;stroke-width:1;stroke-dasharray:7,7;"/><line style="stroke:#181818;stroke-width:1;" x1="838.28" x2="846.28" y1="367.79" y2="367.79"/><line style="stroke:#181818;stroke-width:1;" x1="838.28" x2="846.28" y1="370.79" y2="370.79"/><line style="stroke:#181818;stroke-width:1;" x1="842.28" x2="842.28" y1="371.79" y2="363.79"/><line style="stroke:#181818;stroke-width:1;" x1="842.28" x2="848.28" y1="737.55" y2="745.55"/><line style="stroke:#181818;stroke-width:1;" x1="842.28" x2="836.28" y1="737.55" y2="745.55"/><line style="stroke:#181818;stroke-width:1;" x1="842.28" x2="842.28" y1="737.55" y2="745.55"/><ellipse cx="842.28" cy="731.55" fill="none" rx="4" ry="4" style="stroke:#181818;stroke-width:1;"/></g><!--link Users to Receipts--><g class="link" data-entity-1="ent0002" data-entity-2="ent0011" data-link-type="crowfoot" data-source-line="147" id="lnk33"><path codeLine="147" d="M197.23,136.66 C259.07,136.66 321.6,136.66 321.6,136.66 C321.6,136.66 321.6,485.97 321.6,670.34" fill="none" id="Users-Receipts" style="stroke:#181818;stroke-width:1;stroke-dasharray:7,7;"/><line style="stroke:#181818;stroke-width:1;" x1="193.23" x2="193.23" y1="140.66" y2="132.66"/><line style="stroke:#181818;stroke-width:1;" x1="196.23" x2="196.23" y1="140.66" y2="132.66"/><line style="stroke:#181818;stroke-width:1;" x1="197.23" x2="189.23" y1="136.66" y2="136.66"/><line style="stroke:#181818;stroke-width:1;" x1="321.6" x2="327.6" y1="680.34" y2="688.34"/><line style="stroke:#181818;stroke-width:1;" x1="321.6" x2="315.6" y1="680.34" y2="688.34"/><line style="stroke:#181818;stroke-width:1;" x1="321.6" x2="321.6" y1="680.34" y2="688.34"/><ellipse cx="321.6" cy="674.34" fill="none" rx="4" ry="4" style="stroke:#181818;stroke-width:1;"/></g><!--link Sellers to Receipts--><g class="link" data-entity-1="ent0008" data-entity-2="ent0011" data-link-type="crowfoot" data-source-line="148" id="lnk34"><path codeLine="148" d="M687.12,604.55 C687.12,654.85 687.12,705.66 687.12,705.66 C687.12,705.66 615.84,705.66 537.9,705.66" fill="none" id="Sellers-Receipts" style="stroke:#181818;stroke-width:1;stroke-dasharray:7,7;"/><line style="stroke:#181818;stroke-width:1;" x1="683.12" x2="691.12" y1="600.55" y2="600.55"/><line style="stroke:#181818;stroke-width:1;" x1="683.12" x2="691.12" y1="603.55" y2="603.55"/><line style="stroke:#181818;stroke-width:1;" x1="687.12" x2="687.12" y1="604.55" y2="596.55"/><line style="stroke:#181818;stroke-width:1;" x1="527.9" x2="519.9" y1="705.66" y2="711.66"/><line style="stroke:#181818;stroke-width:1;" x1="527.9" x2="519.9" y1="705.66" y2="699.66"/><line style="stroke:#181818;stroke-width:1;" x1="527.9" x2="519.9" y1="705.66" y2="705.66"/><ellipse cx="533.9" cy="705.66" fill="none" rx="4" ry="4" style="stroke:#181818;stroke-width:1;"/></g><!--link ProdData to ProdEntries--><g class="link" data-entity-1="ent0009" data-entity-2="ent0012" data-link-type="crowfoot" data-source-line="150" id="lnk36"><path codeLine="150" d="M671.93,869.8 C671.93,943.52 671.93,1040.66 671.93,1040.66 C671.93,1040.66 610.66,1040.66 538.67,1040.66" fill="none" id="ProdData-ProdEntries" style="stroke:#181818;stroke-width:1;stroke-dasharray:7,7;"/><line style="stroke:#181818;stroke-width:1;" x1="667.93" x2="675.93" y1="865.8" y2="865.8"/><line style="stroke:#181818;stroke-width:1;" x1="667.93" x2="675.93" y1="868.8" y2="868.8"/><line style="stroke:#181818;stroke-width:1;" x1="671.93" x2="671.93" y1="869.8" y2="861.8"/><line style="stroke:#181818;stroke-width:1;" x1="528.67" x2="520.67" y1="1040.66" y2="1046.66"/><line style="stroke:#181818;stroke-width:1;" x1="528.67" x2="520.67" y1="1040.66" y2="1034.66"/><line style="stroke:#181818;stroke-width:1;" x1="528.67" x2="520.67" y1="1040.66" y2="1040.66"/><ellipse cx="534.67" cy="1040.66" fill="none" rx="4" ry="4" style="stroke:#181818;stroke-width:1;"/></g><?plantuml-src lLPBJnin4Bxlhx0uHWtYr0D2I24yYnhI0gUg1xCUiXPUUsLx2oleVw_NBnopguOIDOUD_SruFFFDUEoA4a0bbIM3GZrGtc29QyGe1zqrW8JKbKW4gi94F5A-GlUOgNI952qdfP0S9Deh4W4N11GqwFDUgetvWmSBu9hg3ktCLBC0VQj0gXs45R8Zz5mWyvjS4BIFsfOIT72ml3myjEXqQlzwnGMkmMXeUD8MEwanPIcmn4ez2adEiQfIV2u1Qo37vhEFYFbgMeCpsv0WGOdezwl7tmK3vwiThVbgVAAO3NYRUfhOEZC4DiwO6svcRNBrQ1XFsJaD6Zab5sff21KSitrq9up3cESCe7TJO7tz2lLToDgPxAV1-JurWwcRs8LMHBc6bQcQWU1wMZET6DwirFHNxrOQonTXAlVZePnJfONiR406wQT_ISTcyUHqn63c5UOh84UTqt0ALk8eE89x8I7QJYIpUmroNU2O2KjIUfp4Bqa52w5D_QR7mZaqqoDapGss4fBw-ZVJ3GjsYAVJoqzeqJA6xnYC5EzSC27FuMczeAyxfKsnZTRpkslW6XWBbUp7sqXy7iqng5BIHbF1FOm-xFfI2jAMscXWwtu_xoV_n_zjkf_LbeTY8XBDiTumyIQwKONXCZJIjBr32IP8t-7zP2jzm1CLZlj0GvYuwXlp_qPep6QrkNFj0OMIrfZvUwwhJG13BV1QjBA4c_vUJulkIj8LDRV2AMMG97fh5Nd2TSnb3_dvLeZqMHbDymQrifIqX8p4RorsCQp3_qA6UyLCVrIK4E0_3TULdhhtGk7lobpexl_2FmDoQNyK2diUeiGyoVWqzAiYzArC7Ff14Hj3RZaSj3SxEmFX11JnA0piu9Fx9ZIduU_ImChBo-xkotE8DyFwzOLxL_MOY5XmRrtJR-Z1k57G5TP26fqt6bXRHoDPZccFHe8YXRaWCnCfUuqjHKEcSZmIxAD9YSstJcH_0000?></g></svg>